<?xml version="1.0" encoding="UTF-8" standalone="no"?>
<!-- Created with Inkscape (http://www.inkscape.org/) -->

<svg
   xmlns:dc="http://purl.org/dc/elements/1.1/"
   xmlns:cc="http://creativecommons.org/ns#"
   xmlns:rdf="http://www.w3.org/1999/02/22-rdf-syntax-ns#"
   xmlns:svg="http://www.w3.org/2000/svg"
   xmlns="http://www.w3.org/2000/svg"
   xmlns:xlink="http://www.w3.org/1999/xlink"
   xmlns:sodipodi="http://sodipodi.sourceforge.net/DTD/sodipodi-0.dtd"
   xmlns:inkscape="http://www.inkscape.org/namespaces/inkscape"
   width="800"
   height="600"
   id="svg2"
   version="1.1"
   inkscape:version="0.48.4 r9939"
   sodipodi:docname="dudando.svg"
   inkscape:export-filename="dudando_redis_y.png"
   inkscape:export-xdpi="120.03619"
   inkscape:export-ydpi="120.03619">
  <defs
     id="defs4">
    <linearGradient
       id="linearGradient3984">
      <stop
         style="stop-color:#d1deff;stop-opacity:1;"
         offset="0"
         id="stop3986" />
      <stop
         style="stop-color:#a4bcff;stop-opacity:1;"
         offset="1"
         id="stop3988" />
    </linearGradient>
    <linearGradient
       id="linearGradient3942">
      <stop
         style="stop-color:#1f346c;stop-opacity:1;"
         offset="0"
         id="stop3944" />
      <stop
         style="stop-color:#2c4a9b;stop-opacity:1;"
         offset="1"
         id="stop3946" />
    </linearGradient>
    <linearGradient
       id="linearGradient3805">
      <stop
         style="stop-color:#fafa45;stop-opacity:1;"
         offset="0"
         id="stop3807" />
      <stop
         style="stop-color:#ffffff;stop-opacity:1;"
         offset="1"
         id="stop3809" />
    </linearGradient>
    <linearGradient
       id="linearGradient3967">
      <stop
         style="stop-color:#ecc2ee;stop-opacity:1;"
         offset="0"
         id="stop3969" />
      <stop
         style="stop-color:#ecc2ee;stop-opacity:0;"
         offset="1"
         id="stop3971" />
    </linearGradient>
    <linearGradient
       id="linearGradient3955">
      <stop
         style="stop-color:#8997a0;stop-opacity:1;"
         offset="0"
         id="stop3957" />
      <stop
         style="stop-color:#8a97a0;stop-opacity:0;"
         offset="1"
         id="stop3959" />
    </linearGradient>
    <linearGradient
       id="linearGradient3943">
      <stop
         style="stop-color:#a09c89;stop-opacity:1;"
         offset="0"
         id="stop3945" />
      <stop
         style="stop-color:#a09c89;stop-opacity:0;"
         offset="1"
         id="stop3947" />
    </linearGradient>
    <linearGradient
       id="linearGradient3832">
      <stop
         style="stop-color:#ae553f;stop-opacity:1;"
         offset="0"
         id="stop3834" />
      <stop
         style="stop-color:#ad553f;stop-opacity:0;"
         offset="1"
         id="stop3836" />
    </linearGradient>
    <linearGradient
       id="linearGradient3772">
      <stop
         style="stop-color:#000000;stop-opacity:1;"
         offset="0"
         id="stop3774" />
      <stop
         style="stop-color:#000000;stop-opacity:0;"
         offset="1"
         id="stop3776" />
    </linearGradient>
    <linearGradient
       id="linearGradient3763">
      <stop
         style="stop-color:#199200;stop-opacity:1;"
         offset="0"
         id="stop3765" />
      <stop
         style="stop-color:#ffffff;stop-opacity:0;"
         offset="1"
         id="stop3767" />
    </linearGradient>
    <linearGradient
       id="linearGradient3760">
      <stop
         style="stop-color:#1b1c3e;stop-opacity:1;"
         offset="0"
         id="stop3762" />
      <stop
         style="stop-color:#37376e;stop-opacity:1;"
         offset="1"
         id="stop3764" />
    </linearGradient>
    <clipPath
       id="clipPath3034"
       clipPathUnits="userSpaceOnUse">
      <path
         id="path3036"
         d="m 0,0 3310,0 0,264 L 0,264 0,0 z"
         inkscape:connector-curvature="0" />
    </clipPath>
    <clipPath
       id="clipPath3024"
       clipPathUnits="userSpaceOnUse">
      <path
         id="path3026"
         d="m 0,0 3310,0 0,264 L 0,264 0,0 z"
         inkscape:connector-curvature="0" />
    </clipPath>
    <linearGradient
       inkscape:collect="always"
       xlink:href="#linearGradient3760"
       id="linearGradient3766"
       x1="-3.3833658e-07"
       y1="361.50504"
       x2="1052.36"
       y2="361.50504"
       gradientUnits="userSpaceOnUse" />
    <linearGradient
       inkscape:collect="always"
       xlink:href="#linearGradient3763"
       id="linearGradient3769"
       x1="-1.0101526"
       y1="85.123703"
       x2="1056.6196"
       y2="85.123703"
       gradientUnits="userSpaceOnUse"
       gradientTransform="matrix(0.99501746,0,0,0.3045998,1.0051194,359.28118)" />
    <linearGradient
       inkscape:collect="always"
       xlink:href="#linearGradient3763-0"
       id="linearGradient3769-2"
       x1="-1.0101526"
       y1="85.123703"
       x2="1056.6196"
       y2="85.123703"
       gradientUnits="userSpaceOnUse"
       gradientTransform="matrix(0.99501746,0,0,0.3045998,1.0051194,359.28118)" />
    <linearGradient
       id="linearGradient3763-0">
      <stop
         style="stop-color:#199200;stop-opacity:1;"
         offset="0"
         id="stop3765-2" />
      <stop
         style="stop-color:#199200;stop-opacity:0;"
         offset="1"
         id="stop3767-1" />
    </linearGradient>
    <linearGradient
       y2="85.123703"
       x2="1056.6196"
       y1="85.123703"
       x1="-1.0101526"
       gradientTransform="matrix(0.99501746,0,0,0.3045998,1.0051189,54.63131)"
       gradientUnits="userSpaceOnUse"
       id="linearGradient3809-8"
       xlink:href="#linearGradient3763-0-4"
       inkscape:collect="always" />
    <linearGradient
       id="linearGradient3763-0-4">
      <stop
         style="stop-color:#199200;stop-opacity:1;"
         offset="0"
         id="stop3765-2-3" />
      <stop
         style="stop-color:#199200;stop-opacity:0;"
         offset="1"
         id="stop3767-1-1" />
    </linearGradient>
    <linearGradient
       inkscape:collect="always"
       xlink:href="#linearGradient3942-4"
       id="linearGradient3948-3"
       x1="-3.3833658e-07"
       y1="361.07388"
       x2="1052.36"
       y2="361.07388"
       gradientUnits="userSpaceOnUse" />
    <linearGradient
       id="linearGradient3942-4">
      <stop
         style="stop-color:#1f346c;stop-opacity:1;"
         offset="0"
         id="stop3944-0" />
      <stop
         style="stop-color:#2c4a9b;stop-opacity:1;"
         offset="1"
         id="stop3946-1" />
    </linearGradient>
    <linearGradient
       inkscape:collect="always"
       xlink:href="#linearGradient3301-2-5"
       id="linearGradient3307-4-3"
       x1="1849.498"
       y1="1175.0056"
       x2="1921.5383"
       y2="1206.2761"
       gradientUnits="userSpaceOnUse"
       gradientTransform="translate(-234.71047,-107.26233)" />
    <linearGradient
       inkscape:collect="always"
       id="linearGradient3301-2-5">
      <stop
         style="stop-color:#000000;stop-opacity:1;"
         offset="0"
         id="stop3303-2-6" />
      <stop
         style="stop-color:#000000;stop-opacity:0;"
         offset="1"
         id="stop3305-6-6" />
    </linearGradient>
    <filter
       id="filter3059-4-7"
       inkscape:label="Invert"
       x="0"
       y="0"
       width="1"
       height="1"
       inkscape:menu="Color"
       inkscape:menu-tooltip="Invert colors"
       color-interpolation-filters="sRGB">
      <feColorMatrix
         id="feColorMatrix3061-1-6"
         type="saturate"
         values="1"
         result="fbSourceGraphic" />
      <feColorMatrix
         id="feColorMatrix3063-2-1"
         in="fbSourceGraphic"
         values="-1 0 0 0 1 0 -1 0 0 1 0 0 -1 0 1 0 0 0 1 0 " />
    </filter>
    <linearGradient
       inkscape:collect="always"
       xlink:href="#linearGradient3301-2-5"
       id="linearGradient3156"
       x1="1849.498"
       y1="1175.0056"
       x2="1921.5383"
       y2="1206.2761"
       gradientUnits="userSpaceOnUse"
       gradientTransform="translate(-234.71047,-107.26233)" />
    <filter
       id="filter3065-8-3"
       inkscape:label="Invert"
       x="0"
       y="0"
       width="1"
       height="1"
       inkscape:menu="Color"
       inkscape:menu-tooltip="Invert colors"
       color-interpolation-filters="sRGB">
      <feColorMatrix
         id="feColorMatrix3067-8-2"
         type="saturate"
         values="1"
         result="fbSourceGraphic" />
      <feColorMatrix
         id="feColorMatrix3069-8-7"
         in="fbSourceGraphic"
         values="-1 0 0 0 1 0 -1 0 0 1 0 0 -1 0 1 0 0 0 1 0 " />
    </filter>
    <filter
       id="filter3071-8-6"
       inkscape:label="Invert"
       x="0"
       y="0"
       width="1"
       height="1"
       inkscape:menu="Color"
       inkscape:menu-tooltip="Invert colors"
       color-interpolation-filters="sRGB">
      <feColorMatrix
         id="feColorMatrix3073-3-6"
         type="saturate"
         values="1"
         result="fbSourceGraphic" />
      <feColorMatrix
         id="feColorMatrix3075-8-0"
         in="fbSourceGraphic"
         values="-1 0 0 0 1 0 -1 0 0 1 0 0 -1 0 1 0 0 0 1 0 " />
    </filter>
    <filter
       id="filter3077-0-7"
       inkscape:label="Invert"
       x="0"
       y="0"
       width="1"
       height="1"
       inkscape:menu="Color"
       inkscape:menu-tooltip="Invert colors"
       color-interpolation-filters="sRGB">
      <feColorMatrix
         id="feColorMatrix3079-4-6"
         type="saturate"
         values="1"
         result="fbSourceGraphic" />
      <feColorMatrix
         id="feColorMatrix3081-7-9"
         in="fbSourceGraphic"
         values="-1 0 0 0 1 0 -1 0 0 1 0 0 -1 0 1 0 0 0 1 0 " />
    </filter>
    <filter
       id="filter3083-8-0"
       inkscape:label="Invert"
       x="0"
       y="0"
       width="1"
       height="1"
       inkscape:menu="Color"
       inkscape:menu-tooltip="Invert colors"
       color-interpolation-filters="sRGB">
      <feColorMatrix
         id="feColorMatrix3085-9-5"
         type="saturate"
         values="1"
         result="fbSourceGraphic" />
      <feColorMatrix
         id="feColorMatrix3087-0-8"
         in="fbSourceGraphic"
         values="-1 0 0 0 1 0 -1 0 0 1 0 0 -1 0 1 0 0 0 1 0 " />
    </filter>
    <filter
       id="filter3089-0-8"
       inkscape:label="Invert"
       x="0"
       y="0"
       width="1"
       height="1"
       inkscape:menu="Color"
       inkscape:menu-tooltip="Invert colors"
       color-interpolation-filters="sRGB">
      <feColorMatrix
         id="feColorMatrix3091-3-8"
         type="saturate"
         values="1"
         result="fbSourceGraphic" />
      <feColorMatrix
         id="feColorMatrix3093-3-4"
         in="fbSourceGraphic"
         values="-1 0 0 0 1 0 -1 0 0 1 0 0 -1 0 1 0 0 0 1 0 " />
    </filter>
    <linearGradient
       id="linearGradient3234-7-8">
      <stop
         style="stop-color:#ffffff;stop-opacity:1;"
         offset="0"
         id="stop3236-3-8" />
      <stop
         style="stop-color:#ffffff;stop-opacity:0;"
         offset="1"
         id="stop3238-2-8" />
    </linearGradient>
    <filter
       id="filter3095-6-3"
       inkscape:label="Invert"
       x="0"
       y="0"
       width="1"
       height="1"
       inkscape:menu="Color"
       inkscape:menu-tooltip="Invert colors"
       color-interpolation-filters="sRGB">
      <feColorMatrix
         id="feColorMatrix3097-5-1"
         type="saturate"
         values="1"
         result="fbSourceGraphic" />
      <feColorMatrix
         id="feColorMatrix3099-2-5"
         in="fbSourceGraphic"
         values="-1 0 0 0 1 0 -1 0 0 1 0 0 -1 0 1 0 0 0 1 0 " />
    </filter>
    <filter
       id="filter3101-9-8"
       inkscape:label="Invert"
       x="0"
       y="0"
       width="1"
       height="1"
       inkscape:menu="Color"
       inkscape:menu-tooltip="Invert colors"
       color-interpolation-filters="sRGB">
      <feColorMatrix
         id="feColorMatrix3103-6-1"
         type="saturate"
         values="1"
         result="fbSourceGraphic" />
      <feColorMatrix
         id="feColorMatrix3105-0-2"
         in="fbSourceGraphic"
         values="-1 0 0 0 1 0 -1 0 0 1 0 0 -1 0 1 0 0 0 1 0 " />
    </filter>
    <filter
       id="filter3107-1-3"
       inkscape:label="Invert"
       x="0"
       y="0"
       width="1"
       height="1"
       inkscape:menu="Color"
       inkscape:menu-tooltip="Invert colors"
       color-interpolation-filters="sRGB">
      <feColorMatrix
         id="feColorMatrix3109-0-6"
         type="saturate"
         values="1"
         result="fbSourceGraphic" />
      <feColorMatrix
         id="feColorMatrix3111-4-1"
         in="fbSourceGraphic"
         values="-1 0 0 0 1 0 -1 0 0 1 0 0 -1 0 1 0 0 0 1 0 " />
    </filter>
    <filter
       id="filter3113-7-9"
       inkscape:label="Invert"
       x="0"
       y="0"
       width="1"
       height="1"
       inkscape:menu="Color"
       inkscape:menu-tooltip="Invert colors"
       color-interpolation-filters="sRGB">
      <feColorMatrix
         id="feColorMatrix3115-0-5"
         type="saturate"
         values="1"
         result="fbSourceGraphic" />
      <feColorMatrix
         id="feColorMatrix3117-8-7"
         in="fbSourceGraphic"
         values="-1 0 0 0 1 0 -1 0 0 1 0 0 -1 0 1 0 0 0 1 0 " />
    </filter>
    <linearGradient
       id="linearGradient3240">
      <stop
         style="stop-color:#ffffff;stop-opacity:1;"
         offset="0"
         id="stop3242" />
      <stop
         style="stop-color:#ffffff;stop-opacity:0;"
         offset="1"
         id="stop3244" />
    </linearGradient>
    <filter
       id="filter3119-2-3"
       inkscape:label="Invert"
       x="0"
       y="0"
       width="1"
       height="1"
       inkscape:menu="Color"
       inkscape:menu-tooltip="Invert colors"
       color-interpolation-filters="sRGB">
      <feColorMatrix
         id="feColorMatrix3121-4-0"
         type="saturate"
         values="1"
         result="fbSourceGraphic" />
      <feColorMatrix
         id="feColorMatrix3123-7-1"
         in="fbSourceGraphic"
         values="-1 0 0 0 1 0 -1 0 0 1 0 0 -1 0 1 0 0 0 1 0 " />
    </filter>
    <linearGradient
       id="linearGradient3156-4-2">
      <stop
         style="stop-color:#ffffff;stop-opacity:1;"
         offset="0"
         id="stop3158-3-7" />
      <stop
         style="stop-color:#ffffff;stop-opacity:0"
         offset="1"
         id="stop3160-1-8" />
    </linearGradient>
    <filter
       id="filter3125-4-2"
       inkscape:label="Invert"
       x="0"
       y="0"
       width="1"
       height="1"
       inkscape:menu="Color"
       inkscape:menu-tooltip="Invert colors"
       color-interpolation-filters="sRGB">
      <feColorMatrix
         id="feColorMatrix3127-6-4"
         type="saturate"
         values="1"
         result="fbSourceGraphic" />
      <feColorMatrix
         id="feColorMatrix3129-9-6"
         in="fbSourceGraphic"
         values="-1 0 0 0 1 0 -1 0 0 1 0 0 -1 0 1 0 0 0 1 0 " />
    </filter>
    <linearGradient
       inkscape:collect="always"
       xlink:href="#linearGradient3301-2-5"
       id="linearGradient4449"
       gradientUnits="userSpaceOnUse"
       gradientTransform="translate(-234.71047,-107.26233)"
       x1="1849.498"
       y1="1175.0056"
       x2="1921.5383"
       y2="1206.2761" />
    <style
       id="style5133"
       type="text/css">
   
    .fil1 {fill:#1F1A17}
    .fil0 {fill:#0963AA}
   
  </style>
    <linearGradient
       inkscape:collect="always"
       xlink:href="#linearGradient3301-2-5-5"
       id="linearGradient4449-0"
       gradientUnits="userSpaceOnUse"
       gradientTransform="translate(-234.71047,-107.26233)"
       x1="1849.498"
       y1="1175.0056"
       x2="1921.5383"
       y2="1206.2761" />
    <linearGradient
       inkscape:collect="always"
       id="linearGradient3301-2-5-5">
      <stop
         style="stop-color:#000000;stop-opacity:1;"
         offset="0"
         id="stop3303-2-6-8" />
      <stop
         style="stop-color:#000000;stop-opacity:0;"
         offset="1"
         id="stop3305-6-6-5" />
    </linearGradient>
    <filter
       id="filter3059-4-7-7"
       inkscape:label="Invert"
       x="0"
       y="0"
       width="1"
       height="1"
       inkscape:menu="Color"
       inkscape:menu-tooltip="Invert colors"
       color-interpolation-filters="sRGB">
      <feColorMatrix
         id="feColorMatrix3061-1-6-0"
         type="saturate"
         values="1"
         result="fbSourceGraphic" />
      <feColorMatrix
         id="feColorMatrix3063-2-1-9"
         in="fbSourceGraphic"
         values="-1 0 0 0 1 0 -1 0 0 1 0 0 -1 0 1 0 0 0 1 0 " />
    </filter>
    <linearGradient
       inkscape:collect="always"
       xlink:href="#linearGradient3301-2-5-5"
       id="linearGradient5443"
       gradientUnits="userSpaceOnUse"
       gradientTransform="translate(-234.71047,-107.26233)"
       x1="1849.498"
       y1="1175.0056"
       x2="1921.5383"
       y2="1206.2761" />
    <filter
       id="filter3065-8-3-9"
       inkscape:label="Invert"
       x="0"
       y="0"
       width="1"
       height="1"
       inkscape:menu="Color"
       inkscape:menu-tooltip="Invert colors"
       color-interpolation-filters="sRGB">
      <feColorMatrix
         id="feColorMatrix3067-8-2-6"
         type="saturate"
         values="1"
         result="fbSourceGraphic" />
      <feColorMatrix
         id="feColorMatrix3069-8-7-5"
         in="fbSourceGraphic"
         values="-1 0 0 0 1 0 -1 0 0 1 0 0 -1 0 1 0 0 0 1 0 " />
    </filter>
    <filter
       id="filter3071-8-6-8"
       inkscape:label="Invert"
       x="0"
       y="0"
       width="1"
       height="1"
       inkscape:menu="Color"
       inkscape:menu-tooltip="Invert colors"
       color-interpolation-filters="sRGB">
      <feColorMatrix
         id="feColorMatrix3073-3-6-8"
         type="saturate"
         values="1"
         result="fbSourceGraphic" />
      <feColorMatrix
         id="feColorMatrix3075-8-0-8"
         in="fbSourceGraphic"
         values="-1 0 0 0 1 0 -1 0 0 1 0 0 -1 0 1 0 0 0 1 0 " />
    </filter>
    <filter
       id="filter3077-0-7-5"
       inkscape:label="Invert"
       x="0"
       y="0"
       width="1"
       height="1"
       inkscape:menu="Color"
       inkscape:menu-tooltip="Invert colors"
       color-interpolation-filters="sRGB">
      <feColorMatrix
         id="feColorMatrix3079-4-6-2"
         type="saturate"
         values="1"
         result="fbSourceGraphic" />
      <feColorMatrix
         id="feColorMatrix3081-7-9-1"
         in="fbSourceGraphic"
         values="-1 0 0 0 1 0 -1 0 0 1 0 0 -1 0 1 0 0 0 1 0 " />
    </filter>
    <filter
       id="filter3083-8-0-7"
       inkscape:label="Invert"
       x="0"
       y="0"
       width="1"
       height="1"
       inkscape:menu="Color"
       inkscape:menu-tooltip="Invert colors"
       color-interpolation-filters="sRGB">
      <feColorMatrix
         id="feColorMatrix3085-9-5-9"
         type="saturate"
         values="1"
         result="fbSourceGraphic" />
      <feColorMatrix
         id="feColorMatrix3087-0-8-8"
         in="fbSourceGraphic"
         values="-1 0 0 0 1 0 -1 0 0 1 0 0 -1 0 1 0 0 0 1 0 " />
    </filter>
    <filter
       id="filter3089-0-8-1"
       inkscape:label="Invert"
       x="0"
       y="0"
       width="1"
       height="1"
       inkscape:menu="Color"
       inkscape:menu-tooltip="Invert colors"
       color-interpolation-filters="sRGB">
      <feColorMatrix
         id="feColorMatrix3091-3-8-8"
         type="saturate"
         values="1"
         result="fbSourceGraphic" />
      <feColorMatrix
         id="feColorMatrix3093-3-4-3"
         in="fbSourceGraphic"
         values="-1 0 0 0 1 0 -1 0 0 1 0 0 -1 0 1 0 0 0 1 0 " />
    </filter>
    <linearGradient
       id="linearGradient3234-7-8-9">
      <stop
         style="stop-color:#ffffff;stop-opacity:1;"
         offset="0"
         id="stop3236-3-8-7" />
      <stop
         style="stop-color:#ffffff;stop-opacity:0;"
         offset="1"
         id="stop3238-2-8-4" />
    </linearGradient>
    <filter
       id="filter3095-6-3-0"
       inkscape:label="Invert"
       x="0"
       y="0"
       width="1"
       height="1"
       inkscape:menu="Color"
       inkscape:menu-tooltip="Invert colors"
       color-interpolation-filters="sRGB">
      <feColorMatrix
         id="feColorMatrix3097-5-1-1"
         type="saturate"
         values="1"
         result="fbSourceGraphic" />
      <feColorMatrix
         id="feColorMatrix3099-2-5-5"
         in="fbSourceGraphic"
         values="-1 0 0 0 1 0 -1 0 0 1 0 0 -1 0 1 0 0 0 1 0 " />
    </filter>
    <filter
       id="filter3101-9-8-9"
       inkscape:label="Invert"
       x="0"
       y="0"
       width="1"
       height="1"
       inkscape:menu="Color"
       inkscape:menu-tooltip="Invert colors"
       color-interpolation-filters="sRGB">
      <feColorMatrix
         id="feColorMatrix3103-6-1-3"
         type="saturate"
         values="1"
         result="fbSourceGraphic" />
      <feColorMatrix
         id="feColorMatrix3105-0-2-8"
         in="fbSourceGraphic"
         values="-1 0 0 0 1 0 -1 0 0 1 0 0 -1 0 1 0 0 0 1 0 " />
    </filter>
    <filter
       id="filter3107-1-3-4"
       inkscape:label="Invert"
       x="0"
       y="0"
       width="1"
       height="1"
       inkscape:menu="Color"
       inkscape:menu-tooltip="Invert colors"
       color-interpolation-filters="sRGB">
      <feColorMatrix
         id="feColorMatrix3109-0-6-2"
         type="saturate"
         values="1"
         result="fbSourceGraphic" />
      <feColorMatrix
         id="feColorMatrix3111-4-1-8"
         in="fbSourceGraphic"
         values="-1 0 0 0 1 0 -1 0 0 1 0 0 -1 0 1 0 0 0 1 0 " />
    </filter>
    <filter
       id="filter3113-7-9-5"
       inkscape:label="Invert"
       x="0"
       y="0"
       width="1"
       height="1"
       inkscape:menu="Color"
       inkscape:menu-tooltip="Invert colors"
       color-interpolation-filters="sRGB">
      <feColorMatrix
         id="feColorMatrix3115-0-5-4"
         type="saturate"
         values="1"
         result="fbSourceGraphic" />
      <feColorMatrix
         id="feColorMatrix3117-8-7-5"
         in="fbSourceGraphic"
         values="-1 0 0 0 1 0 -1 0 0 1 0 0 -1 0 1 0 0 0 1 0 " />
    </filter>
    <linearGradient
       id="linearGradient5527">
      <stop
         style="stop-color:#ffffff;stop-opacity:1;"
         offset="0"
         id="stop5529" />
      <stop
         style="stop-color:#ffffff;stop-opacity:0;"
         offset="1"
         id="stop5531" />
    </linearGradient>
    <filter
       id="filter3119-2-3-2"
       inkscape:label="Invert"
       x="0"
       y="0"
       width="1"
       height="1"
       inkscape:menu="Color"
       inkscape:menu-tooltip="Invert colors"
       color-interpolation-filters="sRGB">
      <feColorMatrix
         id="feColorMatrix3121-4-0-5"
         type="saturate"
         values="1"
         result="fbSourceGraphic" />
      <feColorMatrix
         id="feColorMatrix3123-7-1-0"
         in="fbSourceGraphic"
         values="-1 0 0 0 1 0 -1 0 0 1 0 0 -1 0 1 0 0 0 1 0 " />
    </filter>
    <linearGradient
       inkscape:collect="always"
       xlink:href="#linearGradient3156-4-2-1"
       id="linearGradient4427-5"
       gradientUnits="userSpaceOnUse"
       gradientTransform="translate(-234.71047,-107.26233)"
       x1="918.09521"
       y1="0"
       x2="1000"
       y2="507.61908" />
    <linearGradient
       id="linearGradient3156-4-2-1">
      <stop
         style="stop-color:#ffffff;stop-opacity:1;"
         offset="0"
         id="stop3158-3-7-3" />
      <stop
         style="stop-color:#ffffff;stop-opacity:0"
         offset="1"
         id="stop3160-1-8-3" />
    </linearGradient>
    <filter
       id="filter3125-4-2-5"
       inkscape:label="Invert"
       x="0"
       y="0"
       width="1"
       height="1"
       inkscape:menu="Color"
       inkscape:menu-tooltip="Invert colors"
       color-interpolation-filters="sRGB">
      <feColorMatrix
         id="feColorMatrix3127-6-4-7"
         type="saturate"
         values="1"
         result="fbSourceGraphic" />
      <feColorMatrix
         id="feColorMatrix3129-9-6-2"
         in="fbSourceGraphic"
         values="-1 0 0 0 1 0 -1 0 0 1 0 0 -1 0 1 0 0 0 1 0 " />
    </filter>
    <linearGradient
       inkscape:collect="always"
       xlink:href="#linearGradient3214-5-9-8"
       id="linearGradient4435-7-6"
       gradientUnits="userSpaceOnUse"
       gradientTransform="matrix(0.6321839,0,0,0.6737146,471.49643,284.28016)"
       x1="315.2381"
       y1="1129.8051"
       x2="1920"
       y2="828.85266" />
    <linearGradient
       inkscape:collect="always"
       id="linearGradient3214-5-9-8">
      <stop
         style="stop-color:#ffffff;stop-opacity:1"
         offset="0"
         id="stop3216-8-4-2" />
      <stop
         style="stop-color:#ffffff;stop-opacity:0"
         offset="1"
         id="stop3218-7-7-2" />
    </linearGradient>
    <filter
       id="filter3101-9-8-9-4"
       inkscape:label="Invert"
       x="0"
       y="0"
       width="1"
       height="1"
       inkscape:menu="Color"
       inkscape:menu-tooltip="Invert colors"
       color-interpolation-filters="sRGB">
      <feColorMatrix
         id="feColorMatrix3103-6-1-3-2"
         type="saturate"
         values="1"
         result="fbSourceGraphic" />
      <feColorMatrix
         id="feColorMatrix3105-0-2-8-4"
         in="fbSourceGraphic"
         values="-1 0 0 0 1 0 -1 0 0 1 0 0 -1 0 1 0 0 0 1 0 " />
    </filter>
    <linearGradient
       inkscape:collect="always"
       xlink:href="#linearGradient3301-2-5-59"
       id="linearGradient4449-6"
       gradientUnits="userSpaceOnUse"
       gradientTransform="translate(-234.71047,-107.26233)"
       x1="1849.498"
       y1="1175.0056"
       x2="1921.5383"
       y2="1206.2761" />
    <linearGradient
       inkscape:collect="always"
       id="linearGradient3301-2-5-59">
      <stop
         style="stop-color:#000000;stop-opacity:1;"
         offset="0"
         id="stop3303-2-6-0" />
      <stop
         style="stop-color:#000000;stop-opacity:0;"
         offset="1"
         id="stop3305-6-6-8" />
    </linearGradient>
    <filter
       id="filter3059-4-7-3"
       inkscape:label="Invert"
       x="0"
       y="0"
       width="1"
       height="1"
       inkscape:menu="Color"
       inkscape:menu-tooltip="Invert colors"
       color-interpolation-filters="sRGB">
      <feColorMatrix
         id="feColorMatrix3061-1-6-6"
         type="saturate"
         values="1"
         result="fbSourceGraphic" />
      <feColorMatrix
         id="feColorMatrix3063-2-1-4"
         in="fbSourceGraphic"
         values="-1 0 0 0 1 0 -1 0 0 1 0 0 -1 0 1 0 0 0 1 0 " />
    </filter>
    <linearGradient
       inkscape:collect="always"
       xlink:href="#linearGradient3301-2-5-59"
       id="linearGradient5827"
       gradientUnits="userSpaceOnUse"
       gradientTransform="translate(-234.71047,-107.26233)"
       x1="1849.498"
       y1="1175.0056"
       x2="1921.5383"
       y2="1206.2761" />
    <linearGradient
       inkscape:collect="always"
       id="linearGradient3214-5-6">
      <stop
         style="stop-color:#ffffff;stop-opacity:1"
         offset="0"
         id="stop3216-8-5" />
      <stop
         style="stop-color:#ffffff;stop-opacity:0"
         offset="1"
         id="stop3218-7-1" />
    </linearGradient>
    <filter
       id="filter3101-9-8-8"
       inkscape:label="Invert"
       x="0"
       y="0"
       width="1"
       height="1"
       inkscape:menu="Color"
       inkscape:menu-tooltip="Invert colors"
       color-interpolation-filters="sRGB">
      <feColorMatrix
         id="feColorMatrix3103-6-1-7"
         type="saturate"
         values="1"
         result="fbSourceGraphic" />
      <feColorMatrix
         id="feColorMatrix3105-0-2-9"
         in="fbSourceGraphic"
         values="-1 0 0 0 1 0 -1 0 0 1 0 0 -1 0 1 0 0 0 1 0 " />
    </filter>
    <filter
       id="filter3107-1-3-45"
       inkscape:label="Invert"
       x="0"
       y="0"
       width="1"
       height="1"
       inkscape:menu="Color"
       inkscape:menu-tooltip="Invert colors"
       color-interpolation-filters="sRGB">
      <feColorMatrix
         id="feColorMatrix3109-0-6-1"
         type="saturate"
         values="1"
         result="fbSourceGraphic" />
      <feColorMatrix
         id="feColorMatrix3111-4-1-2"
         in="fbSourceGraphic"
         values="-1 0 0 0 1 0 -1 0 0 1 0 0 -1 0 1 0 0 0 1 0 " />
    </filter>
    <linearGradient
       inkscape:collect="always"
       xlink:href="#linearGradient3214-5-6"
       id="linearGradient4431-7"
       gradientUnits="userSpaceOnUse"
       gradientTransform="translate(-234.71047,-107.26233)"
       x1="315.2381"
       y1="1129.8051"
       x2="1920"
       y2="828.85266" />
    <filter
       id="filter3113-7-9-4"
       inkscape:label="Invert"
       x="0"
       y="0"
       width="1"
       height="1"
       inkscape:menu="Color"
       inkscape:menu-tooltip="Invert colors"
       color-interpolation-filters="sRGB">
      <feColorMatrix
         id="feColorMatrix3115-0-5-8"
         type="saturate"
         values="1"
         result="fbSourceGraphic" />
      <feColorMatrix
         id="feColorMatrix3117-8-7-2"
         in="fbSourceGraphic"
         values="-1 0 0 0 1 0 -1 0 0 1 0 0 -1 0 1 0 0 0 1 0 " />
    </filter>
  </defs>
  <sodipodi:namedview
     id="base"
     pagecolor="#ffffff"
     bordercolor="#666666"
     borderopacity="1.0"
     inkscape:pageopacity="0.0"
     inkscape:pageshadow="2"
     inkscape:zoom="0.90509668"
     inkscape:cx="397.53384"
     inkscape:cy="283.02514"
     inkscape:document-units="px"
     inkscape:current-layer="layer3"
     showgrid="false"
     inkscape:window-width="1680"
     inkscape:window-height="995"
     inkscape:window-x="-2"
     inkscape:window-y="-3"
     inkscape:window-maximized="1"
     fit-margin-top="0"
     fit-margin-left="0"
     fit-margin-right="0"
     fit-margin-bottom="0" />
  <metadata
     id="metadata7">
    <rdf:RDF>
      <cc:Work
         rdf:about="">
        <dc:format>image/svg+xml</dc:format>
        <dc:type
           rdf:resource="http://purl.org/dc/dcmitype/StillImage" />
        <dc:title />
      </cc:Work>
    </rdf:RDF>
  </metadata>
  <g
     inkscape:groupmode="layer"
     id="layer3"
     inkscape:label="figura"
     style="display:inline"
     transform="translate(-389.53479,-1.3855037)">
    <path
       style="fill:#000000"
       d="m 642.92234,605.03432 c 0.0942,-0.24577 0.6306,-0.66475 1.19173,-0.93102 0.56113,-0.26626 2.21106,-1.55761 3.66649,-2.8696 1.45547,-1.31202 3.33668,-2.76595 4.1805,-3.23091 56.87556,-62.35184 126.64763,-38.89431 195.25594,-92.61566 3.31675,-2.57392 4.39412,-3.14784 7.58134,-4.03843 l 3.02671,-0.84575 0.1496,-9.62619 c 0.0826,-5.29438 0.009,-12.8401 -0.17015,-16.76825 l -0.31977,-7.14209 0.87493,-4.00884 c 0.48114,-2.20485 1.3519,-5.33476 1.93491,-6.95536 0.58927,-1.63815 1.18932,-4.07904 1.35139,-5.49695 0.39309,-3.44059 5.31201,-42.13166 5.54731,-43.63398 2.84931,-2.92161 4.5198,-5.61124 4.52434,-9.18555 0,-2.30805 -0.218,-3.49282 -1.37809,-7.49028 -1.06988,-3.68638 -1.3452,-5.09425 -1.2309,-6.29387 0.17373,-1.82238 1.15705,-4.47666 1.98936,-5.36941 0.32431,-0.34791 0.80927,-1.15818 1.07772,-1.80064 0.33256,-0.79586 0.73767,-1.21994 1.27143,-1.33068 0.43087,-0.0895 1.1194,-0.23158 1.53016,-0.31595 1.22037,-0.25066 4.0438,0.91753 8.85441,3.66342 3.63007,1.41308 5.03677,3.39503 6.9958,6.52703 3.04868,3.67881 3.51813,8.28147 4.15323,12.03692 1.42237,8.44489 1.45027,9.32864 0.76506,24.2573 -0.61232,13.34281 -0.60858,15.99316 0.0235,16.62542 0.58187,0.58181 2.09193,0.6446 3.06083,0.12728 9.29802,-8.6851 16.13433,-15.55502 25.81495,-25.07291 2.36765,-0.0712 4.78685,0.0161 7.06751,0.46646 0.73446,0.25915 1.81415,0.47117 2.39926,0.47117 12.65502,-2.69813 25.47689,-6.47591 37.85417,-6.78912 l 9.5348,-0.21705 4.6105,1.52456 4.6104,1.52461 4.5357,5.21557 4.536,5.21563 4.09759,17.27136 4.0975,17.27139 c -1.735,7.39132 -3.3833,14.59751 -3.3937,22.18568 1.9757,8.08849 -5.61949,5.37916 -5.66249,10.05875 -0.1338,12.55202 3.22049,21.54175 8.79509,31.40365 1.0387,7.45446 -1.4138,13.42582 -4.0738,20.19386 l -6.96809,5.49694 c -3.8323,3.02331 -12.5974,9.98271 -19.478,15.46536 -9.61892,7.66479 -13.77153,10.75883 -17.96942,13.38881 l -5.45966,3.42039 c -17.62025,5.17954 -34.65666,11.88638 -49.99405,22.17807 -1.27978,0.88335 -2.50467,1.60836 -2.72189,1.61108 -0.43415,0.007 -2.64692,2.75111 -2.64692,3.28432 0,0.18312 0.28272,0.61565 0.62824,0.96119 l 0.62824,0.6282 -128.46132,0 c -110.95939,0 -128.43795,-0.061 -128.28981,-0.44691 z m 262.2195,-2.20972 c 15.04636,-10.88217 32.62319,-16.67634 50.74527,-22.7327 l 5.81372,-3.63901 c 4.62384,-2.89421 8.37527,-5.68014 18.3299,-13.61207 6.8839,-5.48518 15.7009,-12.48824 19.5934,-15.56238 l 7.07737,-5.58932 c 4.4671,-7.96484 4.4812,-15.73628 4.4812,-24.5614 -4.5252,-6.30336 -6.324,-12.28821 -7.3958,-19.85753 -0.7094,-5.01006 -1.2565,-9.15534 -1.2158,-9.21175 4.5508,-3.07847 5.4665,-4.3833 5.4705,-8.74893 -0.5739,-8.21565 2.3857,-16.05315 3.4551,-24.11545 0,-1.02771 -6.52,-29.47976 -8.192,-35.74831 -0.2185,-0.81984 -1.6655,-2.7426 -4.72747,-6.28221 -2.4269,-2.80537 -4.6846,-5.33702 -5.0172,-5.62581 -0.3326,-0.28879 -2.8252,-1.2652 -5.5392,-2.16974 l -4.9347,-1.64465 -11.002,0.19754 c -11.51951,-3.44136 -29.45097,8.62268 -39.00658,6.23702 -3.74047,-0.47588 -6.73239,-0.36747 -10.58533,-0.36747 l -4.89162,4.78482 c -2.6904,2.63166 -8.04157,7.89692 -11.89141,11.70063 l -6.9998,6.91579 0.17842,-3.29817 c 1.04772,-11.30685 0.91144,-25.95984 -0.48732,-34.33975 -0.144,-4.95591 -1.72021,-8.30664 -4.24414,-12.32863 -1.78984,-4.12316 -4.32508,-5.50131 -8.04776,-7.60918 -2.7922,-1.58099 -5.18074,-2.91346 -5.30784,-2.96104 -0.12714,-0.0475 1.09703,-5.66986 2.72043,-12.49391 1.63263,-6.86268 3.99491,-18.02221 5.2861,-24.97177 l 2.33454,-12.56441 4.91099,-15.39142 c 2.70112,-8.46528 5.0982,-15.96657 5.3268,-16.66953 l 0.41574,-1.2781 -6.32232,-2.7715 c -3.47725,-1.52432 -7.09191,-3.28144 -8.03263,-3.90472 -1.54076,-1.0209 -1.76745,-1.31998 -2.28757,-3.01787 -1.12842,-3.68397 -1.42558,-6.35701 -1.18747,-10.67976 0.19518,-3.54357 0.39561,-4.62327 1.51647,-8.16688 1.51823,-4.79978 2.44659,-6.82077 4.23866,-9.22764 1.78816,-2.40144 2.04634,-2.65318 3.6708,-3.57876 0.92775,-0.52862 2.16907,-0.88606 3.61224,-1.04011 1.20931,-0.12913 2.41083,-0.26018 2.66995,-0.29132 3.69594,-0.44408 4.76548,-0.42991 7.3816,0.0979 l 2.82697,0.57027 0.0954,1.82591 0.0954,1.82587 -0.88067,-0.24856 c -0.48432,-0.13681 -1.79936,-0.28452 -2.92232,-0.32845 -1.12295,-0.0439 -2.39509,-0.16886 -2.82699,-0.2776 -1.47752,-0.37202 -6.88888,-0.19106 -7.78296,0.26026 -0.47028,0.23739 -0.99637,0.38512 -1.16915,0.32829 -0.41954,-0.13809 -1.44524,0.65841 -1.52476,1.18397 -0.0349,0.23049 -0.19197,0.62511 -0.34907,0.87692 -0.83997,1.34664 -0.35649,3.03658 1.32153,4.61914 1.08878,1.02689 2.61109,2.99033 5.69322,7.34301 0.67773,0.95715 1.45917,1.92856 1.73648,2.1587 0.27732,0.23015 0.50419,0.59201 0.50419,0.80417 0,0.21216 0.41199,0.70151 0.91558,1.08744 0.50366,0.38593 1.85984,1.82061 3.01393,3.18816 1.15409,1.36757 2.20799,2.41872 2.34196,2.33589 0.13382,-0.0828 0.34338,-2.16776 0.46509,-4.63322 0.12244,-2.46545 0.30211,-4.82176 0.40048,-5.23622 0.12385,-0.51923 0.0669,-0.68443 -0.18081,-0.53117 -0.44417,0.27454 -0.5024,-1.42983 -0.064,-1.87204 0.26224,-0.26444 0.85376,-2.97907 1.12597,-5.16712 0.0541,-0.4319 0.11958,-0.78528 0.1472,-0.78528 0.027,0 0.10107,-0.2744 0.16358,-0.60974 0.0627,-0.33536 0.1956,-0.93491 0.29526,-1.33234 0.0996,-0.39741 -0.0257,-1.21849 -0.27904,-1.8246 -0.25312,-0.60612 -0.3616,-1.09921 -0.24088,-1.09577 0.55793,0.0164 5.83194,1.04606 11.8417,2.31282 5.28853,1.1148 8.62014,2.07323 16.80493,4.83462 l 10.20849,3.44415 5.5586,3.64309 5.5586,3.64307 0.79212,2.50756 0.79211,2.50751 -2.37421,5.71564 c -2.28779,5.50794 -2.48439,5.85211 -5.40841,9.47031 l -3.03405,3.75463 -2.8181,1.23954 -2.81795,1.23953 -8.9611,-0.3542 -8.96124,-0.35419 -9.61598,-2.62909 c -9.55191,-2.61152 -11.90113,-3.41162 -11.89991,-4.05291 0,-0.18397 0.3324,-1.70559 0.73785,-3.38139 l 0.73725,-3.04693 -0.97352,-0.90917 c -0.8237,-0.76935 -5.03365,-4.3498 -6.42574,-5.4649 -1.17245,-0.93925 -3.81346,-2.61109 -5.07036,-3.2097 -0.77744,-0.3703 -1.80383,-0.93408 -2.28097,-1.25291 -0.58778,-0.39278 -1.16688,-0.51979 -1.79607,-0.39396 -0.59683,0.11931 -1.01629,0.0406 -1.17418,-0.22072 -0.50036,-0.8279 -1.23299,-0.7907 -1.75258,0.089 -0.60049,1.01648 -0.8672,2.45081 -1.06423,5.72328 -0.23601,3.92007 0.76767,5.25534 5.9586,7.92658 3.79355,1.95219 9.84915,4.25425 11.30815,4.29885 0.6673,0.0203 0.67007,0.0322 0.0677,0.28786 -0.34555,0.14664 -0.91098,0.36209 -1.2565,0.47879 -1.00994,0.34112 3.43461,1.84935 12.09326,4.10379 10.34673,2.69393 16.44176,3.44102 25.57227,3.13446 6.06414,-0.20359 6.32195,-0.23926 8.4809,-1.1734 2.02998,-0.87837 2.56654,-1.33122 6.07766,-5.12972 l 3.85095,-4.16629 1.91836,-4.66796 c 1.05505,-2.56737 2.03836,-4.98321 2.18543,-5.36853 0.26451,-0.69348 0.37427,-0.66433 10.81927,2.8724 5.8037,1.96516 10.6152,3.63602 10.6921,3.71308 0.077,0.077 -0.08,4.12131 -0.3495,8.98727 l -0.4896,8.84719 3.5186,5.02449 c 1.9352,2.76348 3.674,5.14382 3.8641,5.28963 0.1899,0.14582 11.20333,4.6017 24.47413,9.90194 l 24.1287,9.63685 5.4495,0.81638 c 4.4995,0.67409 5.9608,0.77479 8.3818,0.57757 l 2.9322,-0.23884 4.3291,-4.81768 4.3292,-4.81763 1.6389,0.65043 c 0.9013,0.35772 7.6158,2.97104 14.9208,5.80733 l 13.282,5.15687 12.161,8.88097 12.161,8.88096 1.6131,4.78069 c 0.8873,2.62936 1.689,5.07065 1.7817,5.42506 l 0.1686,0.64433 1.2022,-0.62247 c 2.5196,-1.30449 2.4287,-0.7483 1.1905,-7.26802 l -1.1033,-5.81105 -3.5258,-3.5682 c -3.0561,-3.09288 -6.6907,-5.94529 -27.2844,-21.41315 l -23.7585,-17.84495 -0.2222,-2.8088 -0.2224,-2.80878 -3.1896,-3.14402 -3.1897,-3.144 -11.6574,-4.89297 c -10.8154,-4.53976 -12.4664,-5.13333 -22.8697,-8.22211 -15.0406,-4.46562 -20.9003,-5.64865 -30.34523,-6.12644 l -7.0034,-0.35428 -2.2558,2.24072 -2.2557,2.24074 -7.8237,-2.3966 c -4.3029,-1.31814 -9.20165,-2.81811 -10.8861,-3.33331 l -3.06253,-0.93671 -0.0142,-1.16443 c -0.0143,-0.988 -0.35463,-1.56891 -2.29989,-3.83436 -2.2297,-2.59693 -2.43955,-2.74959 -7.67655,-5.58266 -4.69246,-2.53846 -6.54618,-3.31942 -14.4266,-6.07769 -11.14767,-3.90186 -10.06484,-3.5902 -20.66427,-5.94695 -4.83739,-1.07555 -8.84222,-1.99459 -8.89975,-2.0423 -0.0569,-0.0477 0.38553,-0.81471 0.98474,-1.7044 1.07356,-1.59408 1.08709,-1.65559 0.92693,-4.22065 -0.1865,-2.99028 0.064,-3.85871 5.43602,-18.87198 1.60729,-4.49177 3.42827,-10.21643 4.04642,-12.72147 1.37623,-5.57649 1.54151,-5.9476 3.74845,-8.41433 0.97177,-1.08627 1.76687,-2.09413 1.76687,-2.23967 0,-0.14548 1.485,-1.56465 3.29985,-3.15358 3.76055,-3.2924 4.59224,-4.38577 6.34189,-8.33719 1.83294,-4.14013 7.56124,-13.16042 9.65969,-15.21138 0.9591,-0.9375 1.74395,-1.87381 1.74395,-2.08067 0,-0.9187 4.84565,-4.90228 7.38158,-6.06842 0.86386,-0.39721 2.1057,-1.14499 2.75972,-1.66174 1.37567,-1.08685 5.87836,-3.4048 6.61395,-3.4048 0.27462,0 1.75136,-0.63608 3.28135,-1.4135 1.53012,-0.77742 2.95163,-1.4135 3.15893,-1.4135 5.4374,-3.64463 9.9293,-10.27636 16.5065,-10.84301 7.0258,-0.90937 12.35628,-6.94759 18.16448,-6.70375 5.5051,-1.26274 11.4088,-0.95125 16.4207,-0.78235 3.1098,0.10208 5.8922,0.31013 6.183,0.46227 0.291,0.15222 0.9977,0.27764 1.5707,0.27886 0.5728,8.6e-4 2.243,0.29394 3.7115,0.65049 1.503,0.36502 4.1797,0.70755 6.125,0.78387 1.9004,0.0746 4.7981,0.30253 6.4393,0.50659 1.6413,0.20408 3.5494,0.35911 4.2406,0.34449 3.7268,-0.0787 6.6441,-0.29724 7.0121,-0.52521 0.2661,-0.16488 0.6899,-2.7e-4 1.1767,0.45704 0.4183,0.39309 0.8392,0.63625 0.9351,0.54032 0.2307,-0.23051 2.5208,1.95221 2.4195,2.3059 -0.045,0.15074 0.063,0.27419 0.2356,0.27419 0.1727,0 0.3141,0.20256 0.3141,0.45013 0,0.61585 2.5882,2.69099 3.3562,2.69099 10.623,4.14789 20.2987,12.15893 30.2102,16.69675 0.5805,0.3297 1.3194,0.51574 1.6418,0.41344 2.6421,0.82171 4.1313,2.25029 6.7517,3.62107 0.2127,0 1.032,0.71759 1.8205,1.59462 0.7886,0.87702 1.5639,1.51407 1.7232,1.41567 0.1593,-0.0984 0.3699,0.14108 0.4681,0.53217 0.197,0.78582 1.9574,2.72254 2.5171,2.7697 0.1955,0.0164 1.1328,0.93018 2.083,2.03048 2.671,3.09312 2.9143,3.32336 4.0048,3.79177 0.5617,0.24114 1.0209,0.57966 1.0209,0.75226 0,0.17257 0.768,0.80511 1.707,1.40562 1.5709,1.37773 3.4461,2.18484 4.8895,3.3814 0,0.23097 0.6361,1.02616 1.4134,1.76709 0.7774,0.74094 1.4135,1.58555 1.4135,1.87696 0,0.75983 4.0726,4.63885 5.1286,4.88482 1.6148,0.37619 3.2262,2.42375 4.9638,6.30788 0.2318,0.51828 0.7062,1.24273 1.0541,1.60988 0.3479,0.36717 0.986,1.17954 1.4179,1.80531 0.4318,0.62575 1.492,1.54877 2.3558,2.05115 2.0784,1.20876 4.2405,3.28135 4.2405,4.06504 0,0.34561 0.8443,1.5228 1.8762,2.61598 1.4259,1.51064 1.8626,2.19047 1.8194,2.83295 -0.031,0.46491 0.1844,1.11211 0.4796,1.43821 0.2951,0.32611 0.5365,0.73656 0.5365,0.91213 0,0.17558 0.2685,0.56233 0.5969,0.85942 0.6094,0.55142 1.1469,1.90019 0.6302,1.58079 -0.6861,-0.42403 -0.1775,0.56351 1.0946,2.12498 0.8016,0.9842 1.9162,1.93539 2.6613,2.27141 0.7051,0.31797 1.2016,0.70826 1.1034,0.86733 -0.1716,0.27738 0.1139,1.20774 0.9915,3.23536 0.2244,0.51828 0.7146,1.86111 1.0892,2.98406 0.3746,1.12294 1.0225,2.72473 1.4398,3.55954 0.4466,0.89345 0.7586,2.0693 0.7586,2.85839 0,1.02602 0.2396,1.65744 1.021,2.691 0.5614,0.74273 1.1622,1.5767 1.335,1.85327 0.1727,0.27656 0.3977,0.57352 0.5002,0.65989 0.1849,0.15583 1.6364,3.13064 3.2952,6.75338 0.6355,1.38784 0.9011,2.54706 1.0075,4.39753 0.08,1.38209 0.3447,2.90575 0.5892,3.38591 0.2445,0.48017 0.3848,0.97488 0.3116,1.09939 -0.073,0.12443 0.017,0.57972 0.1993,1.01163 0.4307,1.01756 0.5525,5.38574 0.1639,5.86949 -0.1937,0.2409 -0.1619,0.62944 0.09,1.0994 0.2284,0.42672 0.4232,2.23663 0.4718,4.38354 0.045,2.01121 0.2555,4.27281 0.467,5.02578 0.6881,2.44947 0.8951,7.31653 0.3537,8.31755 -0.2208,0.40845 -0.358,2.29276 -0.3542,4.86874 0.014,4.09742 -0.4172,8.03873 -0.9746,9.08055 -0.1524,0.28447 -0.1965,0.82484 -0.098,1.20086 0.1478,0.56503 0.077,0.64693 -0.4089,0.47191 -0.3231,-0.11645 -0.4871,-0.10065 -0.3646,0.0352 0.1225,0.13581 0.015,0.65719 -0.2482,1.15867 -0.2594,0.50145 -0.393,1.03893 -0.2968,1.19439 0.095,0.15551 -0.2516,1.45053 -0.7725,2.87791 -0.5209,1.42735 -0.947,2.9053 -0.947,3.28429 0,0.379 -0.2037,1.37673 -0.4528,2.21718 -0.8094,2.73314 -1.4957,5.88247 -1.7361,7.96737 -0.1295,1.12292 -0.538,2.70535 -0.9079,3.51649 -0.3699,0.81116 -0.6726,1.59746 -0.6726,1.74736 0,0.14991 -0.4396,0.68776 -0.9771,1.19516 -0.5374,0.50741 -1.4689,1.9827 -2.0701,3.2784 -0.6011,1.29571 -1.4335,3.01104 -1.8499,3.81184 -0.4162,0.80082 -0.7569,1.74154 -0.7569,2.09054 0,0.34902 -0.2688,1.17799 -0.5972,1.84218 -0.3286,0.66418 -0.9869,2.01853 -1.4629,3.00969 -0.4761,0.99112 -1.1262,2.03781 -1.4445,2.32598 -0.3183,0.28813 -0.5788,0.62912 -0.5788,0.75776 0,0.12855 -0.4947,0.96902 -1.0995,1.86753 -0.6046,0.89852 -1.1008,2.0082 -1.1025,2.46593 0,0.97962 -1.2972,3.87387 -2.3461,5.2491 -0.4054,0.5314 -0.9047,1.58908 -1.1098,2.35036 -0.205,0.76129 -0.6302,1.56448 -0.9448,1.78493 -0.3146,0.22041 -0.6651,0.8238 -0.7786,1.34084 -0.1139,0.51702 -0.3891,1.04693 -0.6123,1.17751 -0.2231,0.13055 -0.7421,0.85738 -1.1533,1.61504 -1.2705,2.34084 -1.4352,2.57828 -2.1244,3.06093 -0.3677,0.25758 -0.8843,0.88548 -1.148,1.39528 -0.4662,0.90169 -0.438,0.99759 1.0288,3.51467 0.8292,1.42327 1.8086,3.36518 2.1761,4.31535 0.7412,1.91567 1.4158,5.1267 1.205,5.73366 -0.076,0.21532 -0.2013,1.00787 -0.2809,1.76125 -0.1513,1.43104 -1.8708,5.2708 -3.3251,7.42533 -1.2543,1.85835 -4.0456,7.26398 -4.8659,9.42333 -1.4984,3.94509 -2.3562,6.41802 -3.6497,10.52269 -0.7349,2.33228 -1.365,4.38184 -1.4003,4.5546 -0.149,0.73138 -1.1452,3.46587 -1.3703,3.76164 -0.1352,0.177 -0.7414,1.52327 -1.3481,2.99174 -0.6068,1.46845 -1.4416,3.18687 -1.855,3.8187 -0.4136,0.63184 -1.2465,1.95547 -1.8512,2.9414 -1.142,1.8621 -3.8369,4.89416 -4.7869,5.38582 -0.3006,0.15551 -1.6607,1.35911 -3.0224,2.67456 -1.3619,1.3155 -3.5405,3.17891 -4.8415,4.14093 -1.3007,0.96206 -2.8169,2.16178 -3.3692,2.66615 -0.552,0.50435 -2.2267,1.73371 -3.7213,2.73192 -1.4947,0.99822 -3.0808,2.05978 -3.5249,2.35903 -3.1268,2.10799 -10.6742,5.05791 -15.0553,5.88444 -2.146,0.40487 -2.7932,0.66075 -3.298,1.30384 -0.3457,0.44005 -1.3675,1.57804 -2.2709,2.52886 -0.9033,0.95082 -1.6455,1.87057 -1.649,2.04388 -0.015,0.4666 -1.4933,1.77728 -3.5614,3.14657 -1.1266,0.74592 -2.1316,1.72928 -2.6212,2.56481 -0.4368,0.74531 -0.922,1.37279 -1.0783,1.39436 -0.1565,0.0216 -0.4257,0.0569 -0.5984,0.0785 -0.1728,0.0216 -0.2789,0.13496 -0.2357,0.25209 0.044,0.11703 -0.5221,0.64802 -1.2564,1.17989 -0.765,0.55406 -1.335,1.22257 -1.335,1.56538 0,0.32906 -0.4109,0.94403 -0.913,1.36658 -1.0795,0.90829 -2.387,3.28341 -2.2637,4.11209 0.05,0.33279 -0.052,0.49886 -0.2336,0.38606 -0.1763,-0.10891 -0.4661,0.0524 -0.6442,0.35831 -0.1783,0.30594 -0.3282,0.42325 -0.3335,0.26067 -0.014,-0.42634 -0.9299,0.84853 -0.9418,1.31063 -0.015,0.21275 -0.554,1.55556 -1.2185,2.98405 -3.1728,6.81863 -3.218,7.05489 -1.6429,8.61015 1.0588,1.04537 2.2764,3.09027 4.7575,7.98948 0.3131,0.61815 0.7624,1.28424 0.9986,1.48024 0.4927,0.40898 3.2324,1.20141 6.2044,1.79455 2.5039,0.49972 2.6886,0.55902 9.1093,2.92221 41.5838,23.68495 91.316,26.87441 135.0675,45.66797 1.9867,0.86912 4.3654,1.90056 5.2861,2.2921 0.9208,0.39153 1.8324,0.87032 2.0261,1.06396 0.1937,0.19362 0.5712,0.35544 0.8389,0.35963 0.9225,0.0148 11.8788,5.72728 15.9877,8.33638 1.6151,1.02554 3.2312,2.032 3.5915,2.23655 2.4376,1.38361 9.9678,6.42396 12.0046,8.03522 0.1728,0.13667 1.3743,1.007 2.67,1.93413 1.2957,0.92709 2.6543,1.94792 3.0192,2.2685 0.3647,0.32058 0.8737,0.72422 1.1308,0.89698 2.3657,1.58899 3.1235,1.98658 4.488,2.3538 2.143,0.57679 4.8217,2.11288 6.0145,3.44905 0.5438,0.60919 1.6393,1.829 2.4343,2.7107 0.7952,0.88171 1.4458,1.83736 1.4458,2.12367 0,0.94339 1.2436,3.16357 2.4379,4.35211 0.6459,0.64266 2.1284,2.0516 3.2945,3.13102 1.1661,1.0794 2.1202,2.08806 2.1202,2.24156 0,0.15335 0.4037,0.79401 0.8972,1.42356 1.6416,2.09449 4.229,6.83006 4.0287,7.37314 -0.075,0.20228 0.141,0.82715 0.4788,1.38862 l 0.6146,1.02087 -195.7193,0 -195.71919,0 3.90355,-2.65666 z M 1044.1643,329.53589 c -2.3323,-0.54971 -5.3714,-1.36626 -6.7535,-1.81462 -2.107,-0.68353 -17.4199,-6.80301 -41.14837,-16.44396 l -5.0258,-2.042 -3.5772,-4.73204 -3.5771,-4.73205 1.1864,-8.36216 1.1865,-8.36219 1.4232,-2.39408 c 0.7827,-1.31676 1.577,-2.60449 1.765,-2.86163 0.247,-0.33781 1.7354,-0.60878 5.365,-0.97668 4.5047,-0.4566 5.31517,-0.46094 7.85037,-0.042 1.5547,0.25688 5.5126,0.89283 8.795,1.41322 5.6238,0.89156 6.6206,1.16342 17.2761,4.71187 8.2264,2.73953 14.1326,4.95459 21.6732,8.1284 l 10.3652,4.36267 2.6871,3.03277 2.6868,3.03275 -0.3743,3.20377 c -0.4138,3.54188 -2.8742,12.66066 -4.867,18.03946 -1.1236,3.03227 -1.4529,3.58447 -3.1806,5.33002 -1.7577,1.77606 -2.0675,1.96134 -3.5226,2.1072 -4.7729,0.47836 -5.9579,0.40904 -10.2334,-0.59862 z"
       id="path3218"
       inkscape:connector-curvature="0"
       sodipodi:nodetypes="cssccsccccccccccccssscccscccccccccccccccccssscccsscsccccssscccccccsccccccssccccccsccsccsccsscsscsccccscssccccsscscsccccsccccsscccccsscccccsccccccccccsscccsssscccsccccsscssccccscccccccccsscccccssscccsccccssscscccsssssssssccccccsccssscccccccccssccccccccsssccscsscccscccsccccscscccscccccccccccccccscccscscscccssccccccsccccccsccccscsccccsccccccccccsscccsscsscccccsccscccccccssscsscccccsccsscccccscsssssccccsss" />
  </g>
</svg>
