<?xml version="1.0" encoding="UTF-8" standalone="no"?>
<!-- Created with Inkscape (http://www.inkscape.org/) -->

<svg
   xmlns:dc="http://purl.org/dc/elements/1.1/"
   xmlns:cc="http://creativecommons.org/ns#"
   xmlns:rdf="http://www.w3.org/1999/02/22-rdf-syntax-ns#"
   xmlns:svg="http://www.w3.org/2000/svg"
   xmlns="http://www.w3.org/2000/svg"
   xmlns:xlink="http://www.w3.org/1999/xlink"
   xmlns:sodipodi="http://sodipodi.sourceforge.net/DTD/sodipodi-0.dtd"
   xmlns:inkscape="http://www.inkscape.org/namespaces/inkscape"
   width="903.58563"
   height="337.97534"
   id="svg2"
   version="1.1"
   inkscape:version="0.48.4 r9939"
   sodipodi:docname="interoperability.svg">
  <defs
     id="defs4">
    <linearGradient
       x1="372.14001"
       y1="501.64999"
       gradientTransform="matrix(0.97759,-0.2105,0.2105,0.97759,-87.494,75.086)"
       x2="484.29001"
       gradientUnits="userSpaceOnUse"
       xlink:href="#linearGradient3868"
       y2="467.35999"
       id="linearGradient3890" />
    <linearGradient
       x1="354.82001"
       y1="592.63"
       gradientTransform="matrix(0.97759,-0.2105,0.2105,0.97759,-87.494,75.086)"
       x2="358.51001"
       gradientUnits="userSpaceOnUse"
       xlink:href="#linearGradient3868"
       y2="524.78003"
       id="linearGradient3882" />
    <linearGradient
       x1="360.42999"
       y1="380.16"
       gradientTransform="matrix(0.97759,-0.2105,0.2105,0.97759,-87.494,75.086)"
       x2="363.19"
       gradientUnits="userSpaceOnUse"
       xlink:href="#linearGradient3868"
       y2="462.31"
       id="linearGradient3874" />
    <radialGradient
       r="183.59"
       gradientTransform="matrix(0.97759,-0.2105,0.21109,0.98032,-87.757,73.864)"
       cx="308.35001"
       cy="448.54001"
       gradientUnits="userSpaceOnUse"
       id="radialGradient3866">
      <stop
         offset="0"
         stop-color="#d27c26"
         id="stop3862"
         style="stop-color:#ffffff;stop-opacity:1;" />
      <stop
         offset="1"
         stop-color="#281500"
         id="stop3864"
         style="stop-color:#102f50;stop-opacity:1;" />
    </radialGradient>
    <linearGradient
       id="linearGradient3868">
      <stop
         offset="0"
         stop-color="#6290a9"
         id="stop3870"
         style="stop-color:#bad3e1;stop-opacity:1;" />
      <stop
         offset="1"
         stop-color="#002b48"
         id="stop3872" />
    </linearGradient>
    <linearGradient
       x1="2.0618999"
       x2="30.6"
       gradientTransform="matrix(1.3435,0,0,1.4179,2.8795,0.3146)"
       y1="15.257"
       gradientUnits="userSpaceOnUse"
       y2="15.257"
       id="linearGradient27488">
      <stop
         offset="0"
         stop-color="#989690"
         id="stop2138" />
      <stop
         offset="1"
         stop-color="#656460"
         id="stop2140" />
    </linearGradient>
    <linearGradient
       x1="11.573"
       x2="18.475"
       gradientTransform="matrix(1.3435,0,0,1.4179,2.8795,0.3146)"
       y1="4.7462001"
       gradientUnits="userSpaceOnUse"
       y2="26.023001"
       id="linearGradient27486">
      <stop
         offset="0"
         stop-color="#fff"
         id="stop15109" />
      <stop
         offset="1"
         stop-color="#e2e2e2"
         id="stop15111" />
    </linearGradient>
    <linearGradient
       x1="5.8266001"
       x2="13.467"
       gradientTransform="matrix(1.5706,0,0,1.191,2.8795,0.343)"
       y1="7.2311001"
       gradientUnits="userSpaceOnUse"
       y2="17.877001"
       id="linearGradient27483">
      <stop
         offset="0"
         stop-color="#ededed"
         id="stop18915" />
      <stop
         offset="1"
         stop-color="#c8c8c8"
         id="stop18917" />
    </linearGradient>
    <linearGradient
       x1="10.184"
       x2="15.311"
       gradientTransform="matrix(1.8193,0,0,1.0282,2.8795,0.343)"
       y1="15.148"
       gradientUnits="userSpaceOnUse"
       y2="29.569"
       id="linearGradient27477">
      <stop
         offset="0"
         stop-color="#fff"
         id="stop2168" />
      <stop
         offset="1"
         stop-color="#dcdcdc"
         id="stop2170" />
    </linearGradient>
    <linearGradient
       x1="8.9155998"
       x2="9.8855"
       gradientTransform="matrix(2.4548,0,0,0.762,2.8795,0.343)"
       y1="37.196999"
       gradientUnits="userSpaceOnUse"
       xlink:href="#linearGradient2152"
       y2="52.091"
       id="linearGradient27471" />
    <linearGradient
       x1="11.233"
       x2="21.112"
       gradientTransform="matrix(1.3709,0,0,1.4438,2.4311,-0.14079)"
       y1="13.686"
       gradientUnits="userSpaceOnUse"
       y2="24.132999"
       id="linearGradient27468">
      <stop
         offset="0"
         stop-color="#fff"
         id="stop9751" />
      <stop
         offset="1"
         stop-color="#ededed"
         id="stop9753" />
    </linearGradient>
    <linearGradient
       x1="8.7804003"
       x2="9.7618999"
       gradientTransform="matrix(2.3949,0,0,0.78106,2.8795,0.343)"
       y1="37.785"
       gradientUnits="userSpaceOnUse"
       y2="32.202999"
       id="linearGradient27463">
      <stop
         offset="0"
         stop-opacity=".12871"
         id="stop2276" />
      <stop
         offset="1"
         stop-opacity="0"
         id="stop2278" />
    </linearGradient>
    <linearGradient
       id="linearGradient2152">
      <stop
         offset="0"
         stop-color="#9aa29a"
         id="stop2154" />
      <stop
         offset="1"
         stop-color="#b5beb5"
         id="stop2156" />
    </linearGradient>
    <linearGradient
       x1="302.85999"
       y1="366.64999"
       gradientTransform="matrix(2.7744,0,0,1.9697,-1892.2,-872.89)"
       x2="302.85999"
       gradientUnits="userSpaceOnUse"
       y2="609.51001"
       id="linearGradient6715">
      <stop
         offset="0"
         stop-opacity="0"
         id="stop5050" />
      <stop
         offset=".5"
         id="stop5056" />
      <stop
         offset="1"
         stop-opacity="0"
         id="stop5052" />
    </linearGradient>
    <radialGradient
       r="117.14"
       gradientTransform="matrix(2.7744,0,0,1.9697,-1891.6,-872.89)"
       cx="605.71002"
       cy="486.64999"
       gradientUnits="userSpaceOnUse"
       xlink:href="#linearGradient5060"
       id="radialGradient6717" />
    <linearGradient
       id="linearGradient5060">
      <stop
         offset="0"
         id="stop5062" />
      <stop
         offset="1"
         stop-opacity="0"
         id="stop5064" />
    </linearGradient>
    <radialGradient
       r="117.14"
       gradientTransform="matrix(-2.7744,0,0,1.9697,112.76,-872.89)"
       cx="605.71002"
       cy="486.64999"
       gradientUnits="userSpaceOnUse"
       xlink:href="#linearGradient5060"
       id="radialGradient6719" />
  </defs>
  <sodipodi:namedview
     id="base"
     pagecolor="#ffffff"
     bordercolor="#666666"
     borderopacity="1.0"
     inkscape:pageopacity="0.0"
     inkscape:pageshadow="2"
     inkscape:zoom="0.49497475"
     inkscape:cx="109.77535"
     inkscape:cy="-96.29151"
     inkscape:document-units="px"
     inkscape:current-layer="layer1"
     showgrid="false"
     inkscape:window-width="1680"
     inkscape:window-height="995"
     inkscape:window-x="-2"
     inkscape:window-y="-3"
     inkscape:window-maximized="1"
     fit-margin-top="0"
     fit-margin-left="0"
     fit-margin-right="0"
     fit-margin-bottom="0" />
  <metadata
     id="metadata7">
    <rdf:RDF>
      <cc:Work
         rdf:about="">
        <dc:format>image/svg+xml</dc:format>
        <dc:type
           rdf:resource="http://purl.org/dc/dcmitype/StillImage" />
        <dc:title></dc:title>
      </cc:Work>
    </rdf:RDF>
  </metadata>
  <g
     inkscape:label="Layer 1"
     inkscape:groupmode="layer"
     id="layer1"
     transform="translate(110.14035,-12.386856)">
    <g
       transform="matrix(0.90952452,0,0,0.90952452,350.7021,-235.38926)"
       id="layer1-7">
      <path
         d="m 405.48,386.76 -36.646,31.023 45.203,11.476 36.407,-23.788 -44.964,-18.712 z"
         id="path4517-7"
         inkscape:connector-curvature="0"
         style="fill:#916f6f" />
      <path
         d="m 364.99,412.68 -36.646,31.023 45.203,11.476 36.407,-23.788 -44.964,-18.712 z"
         id="path4515-1"
         inkscape:connector-curvature="0"
         style="fill:#916f6f" />
      <path
         d="m 227,378.34 -36.646,31.023 51.158,13.767 27.536,-31.585 L 227,378.34 z"
         id="path3803-4-4-6-2-74"
         inkscape:connector-curvature="0"
         style="fill:#916f6f" />
      <path
         d="m 478.9,389.21 c 0.46489,0.46516 -1.1133,49.948 -1.6857,52.849 -0.3418,1.7326 -2.6544,4.026 -12.909,12.765 l -12.498,10.648 -0.16325,-9.1473 c -0.0881,-5.0296 0.0596,-18.133 0.32884,-29.128 l 0.4934,-20.001 13.032,-9.1882 c 7.1677,-5.0519 13.197,-9.0037 13.403,-8.798 z"
         id="path2872-3-7-9"
         inkscape:connector-curvature="0"
         style="fill:#a02c2c" />
      <path
         d="m 447.76,410.77 c 0.0804,0.12698 -0.026,13.321 -0.20472,29.312 -0.27132,22.45 -0.53875,29.256 -1.1923,29.909 -0.46566,0.46541 -6.9778,6.0781 -14.471,12.457 l -13.629,11.593 -0.411,-14.225 c -0.22545,-7.821 -0.44752,-21.822 -0.49339,-31.101 l -0.083,-16.856 15.17,-10.668 c 8.3435,-5.8638 15.234,-10.55 15.314,-10.422 z"
         id="path2870-4-1-8"
         inkscape:connector-curvature="0"
         style="fill:#a02c2c" />
      <path
         d="m 191.2,413.3 c 0.77016,0 50.628,12.509 50.937,12.786 0.16584,0.1503 4.7645,61.633 4.7689,63.764 0,0.6976 -0.35268,1.0946 -0.82225,0.92512 -0.45219,-0.16325 -10.933,-3.0534 -23.29,-6.4134 -12.356,-3.3602 -22.845,-6.3517 -23.31,-6.6396 -0.5714,-0.3532 -2.0827,-10.223 -4.6251,-30.34 -2.0721,-16.397 -3.9031,-30.768 -4.0905,-31.944 -0.22286,-1.4009 -0.0804,-2.1335 0.43172,-2.1379 z"
         id="path2868-0-3-7"
         inkscape:connector-curvature="0"
         style="fill:#d4aa00" />
      <path
         d="m 246.91,427.24 30.649,7.7907 c 16.859,4.2851 30.797,7.9187 30.957,8.0784 0.31978,0.31978 2.1555,50.708 2.1791,59.735 l 0.0259,5.6528 -29.292,-8.0374 c -16.113,-4.4232 -29.473,-8.218 -29.682,-8.4279 -0.37005,-0.36979 -4.7785,-57.553 -4.8101,-62.387 l -0.0259,-2.405 z"
         id="path2866-3-8-1"
         inkscape:connector-curvature="0"
         style="fill:#d4aa00" />
      <path
         d="m 413.02,435.01 c 0.16585,0 0.28998,14.282 0.26717,31.738 l -0.0414,31.738 -16.239,13.752 -16.239,13.752 -0.41099,-8.4894 c -0.23064,-4.6668 -0.4522,-19.93 -0.4934,-33.917 l -0.083,-25.427 16.465,-11.573 c 9.0605,-6.3631 16.609,-11.573 16.773,-11.573 z"
         id="path2864-9-0-8"
         inkscape:connector-curvature="0"
         style="fill:#a02c2c" />
      <path
         d="m 313.47,444.55 c 0.26588,-0.26588 59.816,14.596 60.126,15.006 0.0518,0.0674 0.29801,15.05 0.55507,33.28 0.46127,32.698 0.46852,33.139 -0.80177,32.807 -0.70822,-0.18658 -14.021,-3.8378 -29.58,-8.0991 l -28.285,-7.7495 -0.41098,-6.9682 c -0.68621,-12.101 -1.9435,-57.936 -1.6036,-58.276 z"
         id="path2862-1-9-2"
         inkscape:connector-curvature="0"
         style="fill:#d4aa00" />
      <path
         d="m 476.95,450.84 c 0.026,0 0.026,0.026 0.026,0.0414 0.0907,0.49754 -0.21768,11.501 -0.69889,24.441 l -0.88392,23.516 -1.6445,1.809 c -0.90361,0.98887 -6.3465,6.9444 -12.107,13.238 l -10.483,11.429 -0.20472,-12.416 c -0.11402,-6.836 -0.026,-18.976 0.22544,-26.969 l 0.4522,-14.533 12.58,-10.709 c 7.1017,-6.0402 12.337,-10.079 12.745,-9.8464 z"
         id="path2860-9-7-1"
         inkscape:connector-curvature="0"
         style="fill:#a02c2c" />
      <path
         d="m 446.55,475.73 0.20472,12.354 c 0.11402,6.8039 0.0258,19.212 -0.22545,27.566 l -0.4522,15.191 -13.567,14.8 -13.588,14.8 -0.411,-8.613 c -0.22804,-4.7383 -0.45063,-18.291 -0.49339,-30.135 l -0.0829,-21.543 14.307,-12.21 14.307,-12.21 z"
         id="path2858-6-9-7"
         inkscape:connector-curvature="0"
         style="fill:#a02c2c" />
      <path
         d="m 200.72,483.35 c 2.1013,0.14511 8.0193,1.6872 22.817,5.7554 13.016,3.5787 23.708,6.551 23.762,6.6192 0.0544,0.0674 0.89143,11.075 1.85,24.461 0.9588,13.386 1.9344,26.084 2.1584,28.223 0.38016,3.6328 0.32315,3.8707 -0.84272,3.412 -0.68645,-0.27001 -10.726,-4.0488 -22.303,-8.3867 -11.577,-4.338 -21.314,-8.146 -21.645,-8.4689 -0.62815,-0.61208 -7.1092,-49.506 -6.8039,-51.328 0.0362,-0.21508 0.30682,-0.33584 1.007,-0.28764 z"
         id="path2856-9-9-35"
         inkscape:connector-curvature="0"
         style="fill:#d4aa00" />
      <path
         d="m 252.15,497.21 c 0.41773,-0.22545 58.362,15.643 58.769,16.095 0.15289,0.16844 0.61234,12 1.0277,26.291 0.41566,14.29 0.92538,28.128 1.1306,30.751 0.20472,2.623 0.20991,4.7689 0,4.7689 -0.2099,0 -13.104,-4.7767 -28.655,-10.607 l -28.264,-10.586 -0.34957,-2.0759 c -0.631,-3.9306 -4.0127,-54.446 -3.6588,-54.637 z"
         id="path2854-3-3-4"
         inkscape:connector-curvature="0"
         style="fill:#d4aa00" />
      <path
         d="m 413.41,504.18 c 0.31096,-0.1192 0.57555,13.702 0.57555,30.71 v 30.936 l -15.951,17.431 c -8.7731,9.591 -16.129,17.451 -16.342,17.473 -0.2125,0.026 -0.58255,-11.547 -0.82225,-25.715 -0.24099,-14.169 -0.43483,-29.635 -0.43172,-34.369 l 0.026,-8.613 16.198,-13.813 c 8.911,-7.5974 16.442,-13.919 16.753,-14.04 z"
         id="path2852-3-2-6"
         inkscape:connector-curvature="0"
         style="fill:#a02c2c" />
      <path
         d="m 315.65,514.72 c 0.21768,-0.21767 17.637,4.4559 57.721,15.499 1.0772,0.29697 1.1511,2.5017 1.1511,34.184 0,18.704 -0.26225,33.751 -0.57554,33.629 -0.31201,-0.1192 -13.188,-4.9399 -28.614,-10.709 l -28.038,-10.484 -0.0258,-3.9879 c 0,-2.1895 -0.42552,-16.098 -0.9456,-30.916 -0.52035,-14.817 -0.82768,-27.067 -0.67843,-27.216 z"
         id="rect2845-8-4-0"
         inkscape:connector-curvature="0"
         style="fill:#d4aa00" />
      <path
         d="m 360.27,289.19 -18.388,4.2542 c -10.113,2.3421 -19.079,4.5246 -19.936,4.8482 -1.3535,0.51128 -0.0933,1.29 9.6078,5.8899 6.1408,2.9119 11.304,5.302 11.486,5.3154 0.1814,0.026 9.0771,-2.3452 19.766,-5.2491 10.689,-2.9042 19.645,-5.5088 19.897,-5.7728 0.25136,-0.26277 -4.6899,-2.4502 -10.984,-4.8744 l -11.448,-4.4116 z"
         id="path2902-7-3-6"
         inkscape:connector-curvature="0"
         style="fill:#216778" />
      <path
         d="m 312.86,300.2 -32.798,7.5927 c -18.042,4.177 -32.556,7.8234 -32.25,8.0929 0.61442,0.54082 25.402,12.604 25.901,12.606 0.17104,0 14.02,-3.7362 30.774,-8.3072 16.754,-4.5707 30.678,-8.5142 30.93,-8.77 0.25136,-0.25396 -4.7189,-2.8839 -11.046,-5.8384 l -11.511,-5.3758 z"
         id="path2900-2-7-0"
         inkscape:connector-curvature="0"
         style="fill:#216778" />
      <path
         d="m 390.94,301.04 -20.083,5.4346 c -11.046,2.9873 -20.285,5.6189 -20.53,5.8544 -0.24618,0.23582 7.4214,4.1353 17.037,8.6658 9.6156,4.5305 17.483,8.2333 17.483,8.225 0,0 9.7361,-3.1089 21.637,-6.8941 l 21.637,-6.8941 -4.3937,-1.6942 c -2.4164,-0.93108 -10.781,-4.1566 -18.589,-7.1856 l -14.197,-5.5118 z"
         id="path2898-4-8-0"
         inkscape:connector-curvature="0"
         style="fill:#216778" />
      <path
         d="m 239.96,317.11 -23.159,5.3442 c -12.739,2.9451 -23.309,5.5165 -23.485,5.7156 -0.17363,0.19694 0.13734,0.60067 0.69526,0.88235 0.55922,0.28143 6.2626,3.5898 12.667,7.3403 6.4048,3.7508 12.088,6.7962 12.632,6.7868 0.54341,0 11.191,-2.7857 23.661,-6.1799 12.47,-3.3944 22.879,-6.3603 23.119,-6.5982 0.23841,-0.23841 -5.5406,-3.3416 -12.843,-6.8762 l -13.287,-6.415 z"
         id="path2896-0-7-0"
         inkscape:connector-curvature="0"
         style="fill:#216778" />
      <path
         d="m 342.75,314.2 -30.326,8.237 c -16.671,4.5321 -30.779,8.485 -31.362,8.7772 -0.75331,0.37809 4.3698,3.1594 17.76,9.649 10.35,5.0164 19.017,9.1297 19.251,9.1411 0.23323,0 13.466,-4.0845 29.405,-9.1046 15.939,-5.0195 29.379,-9.3217 29.891,-9.5477 0.53486,-0.23582 -6.6119,-3.9648 -16.839,-8.7816 L 342.75,314.2 z"
         id="path2894-6-4-6"
         inkscape:connector-curvature="0"
         style="fill:#216778" />
      <path
         d="m 185.32,333.76 c -0.0907,0.10364 1.1446,13.136 2.7321,28.971 2.4973,24.901 3.0304,28.951 4.0252,29.856 1.3571,1.234 26.339,16.547 27,16.551 0.24877,0 -0.54186,-12.921 -1.7461,-28.705 -1.2042,-15.783 -2.3255,-29.067 -2.4996,-29.521 -0.29982,-0.78286 -29.157,-17.554 -29.511,-17.152 z"
         id="path2892-2-1-66"
         inkscape:connector-curvature="0"
         style="fill:#d4aa00" />
      <path
         d="m 434.74,317.99 -21.785,6.8418 c -13.144,4.1265 -21.516,7.0586 -21.131,7.3973 0.35139,0.30838 8.8542,4.418 18.901,9.1429 l 18.268,8.5863 3.5782,-1.0547 c 1.9682,-0.58643 13.113,-3.836 24.768,-7.2193 11.655,-3.383 21.169,-6.323 21.146,-6.5329 -0.026,-0.2099 -4.8244,-2.2136 -10.668,-4.4416 -5.8436,-2.2278 -15.683,-5.9892 -21.859,-8.3756 l -11.218,-4.3442 z"
         id="path2890-9-9-2"
         inkscape:connector-curvature="0"
         style="fill:#216778" />
      <path
         d="m 271.82,333.6 c -0.74139,0.22286 -11.411,3.1371 -23.704,6.4712 -12.293,3.3341 -22.643,6.1659 -22.994,6.3017 -0.35035,0.13735 7.677,5.0584 17.821,10.922 l 18.443,10.656 19.401,-6.1115 c 10.678,-3.3566 21.968,-6.8975 25.075,-7.878 3.1076,-0.98031 5.4002,-1.9881 5.1081,-2.2446 -0.29205,-0.25655 -8.9177,-4.5328 -19.171,-9.4964 -12.72,-6.1569 -19.06,-8.8967 -19.98,-8.6202 z"
         id="path2888-9-0-6"
         inkscape:connector-curvature="0"
         style="fill:#216778" />
      <path
         d="m 384.49,333.84 -29.882,9.3619 c -16.435,5.1504 -29.871,9.5414 -29.857,9.7513 0.026,0.20991 7.8824,4.1625 17.479,8.8021 l 17.434,8.4342 30.996,-9.0216 c 17.04,-4.97 31.091,-9.1737 31.223,-9.3246 0.13217,-0.1503 -8.2245,-4.2649 -18.572,-9.1437 l -18.821,-8.8597 z"
         id="path2886-0-9-6"
         inkscape:connector-curvature="0"
         style="fill:#216778" />
      <path
         d="m 219.62,353.03 -0.0259,2.185 c -0.026,1.1964 0.99457,14.549 2.2423,29.682 l 2.2674,27.517 15.781,9.6327 c 8.6798,5.2996 15.816,9.5925 15.858,9.5451 0.0414,-0.0466 -0.56984,-13.452 -1.3644,-29.801 l -1.4421,-29.733 -16.659,-9.514 -16.659,-9.514 z"
         id="path2884-8-8-4"
         inkscape:connector-curvature="0"
         style="fill:#d4aa00" />
      <path
         d="m 485.17,340.14 c -0.26977,-0.23582 -53.353,15.436 -53.728,15.863 -0.27416,0.31226 -0.87485,53.62 -0.64318,57.14 0.0752,1.1734 0.31848,2.1218 0.54756,2.107 0.23064,-0.0259 11.493,-3.6041 25.028,-7.9778 13.535,-4.374 24.801,-8.1403 25.023,-8.3688 0.4338,-0.44649 4.156,-58.426 3.7725,-58.763 z"
         id="path2882-1-8-7"
         inkscape:connector-curvature="0"
         style="fill:#a02c2c" />
      <path
         d="m 317.76,354.78 -25.255,7.9719 c -13.899,4.3849 -25.26,8.1437 -25.231,8.3414 0.0778,0.53434 28.998,17.265 29.762,17.218 0.36099,-0.026 13.016,-3.6551 28.112,-8.0734 15.096,-4.418 27.524,-8.1315 27.626,-8.2484 0.10364,-0.11662 -7.7334,-4.0298 -17.41,-8.7034 l -17.604,-8.5057 z"
         id="path2880-3-5-6"
         inkscape:connector-curvature="0"
         style="fill:#216778" />
      <path
         d="m 426.18,357.84 c -4.0247,0.68049 -61.721,17.478 -62.475,18.218 -0.22804,0.22545 -0.10104,10.314 0.29204,22.433 0.39389,12.12 0.76394,25.666 0.82769,30.103 0.0622,4.4367 0.37524,8.04 0.67972,8.0102 0.30734,-0.026 14.004,-4.4235 30.433,-9.7682 16.429,-5.3447 29.993,-9.862 30.148,-10.038 0.48665,-0.55378 0.80073,-58.55 0.31925,-58.973 -0.0285,-0.0259 -0.0984,-0.0259 -0.22545,0.026 z"
         id="path2878-1-8-6"
         inkscape:connector-curvature="0"
         style="fill:#a02c2c" />
      <path
         d="m 257.03,374.45 1.6878,29.697 c 1.263,22.3 1.8935,29.907 2.525,30.549 1.0208,1.0415 33.34,20.903 34.037,20.918 0.27236,0 -0.20731,-10.846 -1.0596,-24.114 -0.85516,-13.268 -1.5406,-27.007 -1.5349,-30.531 l 0.026,-6.4074 -1.786,-0.54392 c -0.9754,-0.30086 -8.1831,-4.3688 -16.011,-9.0408 -7.828,-4.6725 -15.037,-8.9537 -16.041,-9.5127 l -1.8365,-1.0148 z"
         id="path2876-1-4-6"
         inkscape:connector-curvature="0"
         style="fill:#d4aa00" />
      <path
         d="m 358.17,377.78 c -3.0537,0.17103 -59.449,17.334 -60.143,18.294 -0.58072,0.80488 -0.30681,8.0226 1.1809,31.11 1.0658,16.538 2.1607,30.061 2.4304,30.041 0.2708,-0.0259 13.516,-4.2566 29.446,-9.416 15.93,-5.1597 29.191,-9.6508 29.452,-9.9727 0.26069,-0.32159 0.031,-12.571 -0.49781,-27.22 -0.52993,-14.648 -0.89972,-28.047 -0.82716,-29.773 0.11402,-2.6963 -0.0362,-3.1231 -1.0417,-3.0638 z"
         id="path2874-0-3-0"
         inkscape:connector-curvature="0"
         style="fill:#a02c2c" />
      <path
         d="m 382.14,297.98 c 0.32806,0.18916 0.53564,0.3532 0.48588,0.40502 -0.25136,0.26407 -9.2323,2.849 -19.921,5.7495 -10.688,2.906 -19.578,5.2898 -19.759,5.2639 -0.1814,-0.026 -5.3584,-2.4325 -11.499,-5.3447 -9.4158,-4.4644 -10.877,-5.2379 -9.7177,-5.7497 l -8.5839,1.9435 11.094,5.2639 c 6.3286,2.9544 11.346,5.5766 11.094,5.8306 -0.25137,0.25655 -14.18,4.1752 -30.935,8.7459 -16.754,4.5709 -30.602,8.3409 -30.773,8.3409 -0.49883,-0.002 -25.299,-12.092 -25.914,-12.633 l -7.6122,1.2957 13.038,6.3167 c 7.3022,3.5346 13.114,6.6448 12.876,6.8832 -0.241,0.23841 -10.691,3.246 -23.16,6.6404 -12.47,3.3942 -23.103,6.1545 -23.646,6.1545 -0.54316,0 -6.2281,-3.0516 -12.633,-6.8024 -6.4048,-3.7505 -12.074,-7.0877 -12.633,-7.3691 -0.55791,-0.28195 -0.90283,-0.60794 -0.72869,-0.81007 l -8.0172,1.7007 v 3.8871 c 0.35398,-0.40244 29.258,16.305 29.558,17.087 0.17363,0.45375 1.3063,13.775 2.5105,29.558 1.204,15.783 1.9498,28.667 1.7004,28.667 l 5.0211,3.0773 -2.2675,-27.291 c -1.249,-15.132 -2.2125,-28.444 -2.1866,-29.639 v -2.1866 l 16.682,9.4746 16.601,9.556 1.4574,29.72 c 0.79453,16.348 1.4183,29.754 1.3768,29.801 l 6.8835,4.211 v -0.24359 c -0.41799,-0.28194 -1.3016,-0.81421 -1.3768,-0.89091 -0.63152,-0.64266 -1.2478,-8.2294 -2.5103,-30.53 l -1.7007,-29.72 1.8624,1.0526 c 1.0049,0.55921 8.2061,4.8023 16.034,9.4748 7.8272,4.672 14.978,8.7692 15.953,9.0698 l 1.7816,0.48589 v 6.4784 c 0,3.5235 0.68439,17.263 1.5385,30.53 0.8435,13.126 1.3063,23.741 1.0529,23.97 v 0.0804 l 2.7533,1.6196 h 3.644 c -0.26976,0.0259 -1.3636,-13.505 -2.4292,-30.044 -1.4885,-23.088 -1.7956,-30.292 -1.2148,-31.097 0.69345,-0.96062 57.115,-18.128 60.169,-18.302 1.008,-0.0596 1.1666,0.37963 1.0526,3.0775 -0.0726,1.7264 0.28013,15.152 0.8098,29.801 0.52916,14.648 0.74658,26.888 0.48589,27.209 -0.0674,0.083 -1.1586,0.45842 -2.8344,1.0526 v 0.48588 l 12.309,-4.049 v -0.16066 c -0.60482,0.18657 -4.489,1.4538 -4.5349,1.4576 -0.30423,0.031 -0.58565,-3.5802 -0.64784,-8.0172 -0.0596,-4.4359 -0.418,-18.005 -0.80955,-30.125 -0.3944,-12.119 -0.55223,-22.206 -0.32393,-22.431 0.75332,-0.74036 58.493,-17.54 62.517,-18.22 0.12698,-0.0518 0.13475,-0.0259 0.16066,0 0.48174,0.4224 0.16585,58.4 -0.32392,58.954 -0.0311,0.0362 -2.6336,0.91605 -3.7248,1.2957 v 0.24359 l 11.985,-3.8871 v -0.16067 c -0.33067,0.10104 -2.9687,0.96867 -2.9964,0.97177 -0.22805,0.026 -0.41074,-0.93212 -0.48588,-2.1055 -0.23064,-3.5204 0.37367,-56.86 0.64784,-57.172 0.37497,-0.42654 53.42,-16.108 53.69,-15.872 v -1.3765 l -7.9364,-3.0775 c -2.6725,0.92512 -10.453,3.2436 -19.921,5.9928 -11.655,3.382 -22.81,6.7036 -24.78,7.288 l -3.5631,1.0529 -18.22,-8.5839 c -10.047,-4.7251 -18.598,-8.8436 -18.949,-9.1507 -0.38507,-0.33843 7.991,-3.3242 21.136,-7.4502 l 20.65,-6.4784 -6.5596,-2.5105 -20.569,6.4784 c -11.901,3.7852 -21.622,6.9643 -21.622,6.9643 5.2e-4,0 -7.8762,-3.7295 -17.492,-8.26 -9.6158,-4.5308 -17.249,-8.4279 -17.006,-8.665 0.24618,-0.23322 9.4417,-2.8425 20.488,-5.8306 l 19.435,-5.2636 -8.0172,-3.1584 0.001,-0.002 z M 255.65,431.52 v 7.8e-4 -7.8e-4 z m -31.663,-19.435 v 0.24359 l 1.3765,0.81007 v -0.24359 l -1.3765,-0.80981 v -2.6e-4 z m 118.64,-97.986 17.816,8.3411 c 10.227,4.8163 17.379,8.5909 16.844,8.8268 -0.51128,0.22545 -13.944,4.536 -29.882,9.5557 -15.939,5.02 -29.16,9.0698 -29.396,9.0698 -0.23323,0 -8.9229,-4.1343 -19.273,-9.1509 -13.39,-6.4896 -18.488,-9.2585 -17.735,-9.6366 0.58202,-0.29231 14.668,-4.2138 31.339,-8.7459 l 30.287,-8.26 z m -70.939,19.435 c 0.91969,-0.27677 7.282,2.4271 20.002,8.5839 10.253,4.9633 18.9,9.218 19.192,9.4748 0.29205,0.25655 -1.9938,1.2858 -5.1019,2.2675 -3.1071,0.98057 -14.429,4.4984 -25.104,7.855 l -19.354,6.1545 -18.464,-10.689 c -10.144,-5.8638 -18.166,-10.795 -17.816,-10.932 0.35035,-0.13475 10.706,-2.9016 22.998,-6.2354 12.292,-3.3341 22.905,-6.2556 23.646,-6.4784 z m 112.72,0.24359 18.787,8.8267 c 10.347,4.8788 18.758,9.0009 18.626,9.1507 -0.13215,0.1503 -14.218,4.3429 -31.258,9.3129 l -31.016,8.989 -17.411,-8.422 c -9.5961,-4.6409 -17.466,-8.5373 -17.492,-8.7459 -0.026,-0.2099 13.446,-4.6487 29.882,-9.7988 l 29.882,-9.3126 z m -66.728,20.893 17.573,8.5031 c 9.678,4.6735 17.515,8.6293 17.411,8.7459 -0.10363,0.11661 -12.519,3.842 -27.614,8.26 -15.098,4.4183 -27.739,7.991 -28.1,8.0172 -0.76446,0.0466 -29.723,-16.634 -29.801,-17.168 -0.0285,-0.19695 11.368,-3.9563 25.266,-8.3411 l 25.266,-8.0172 z"
         id="rect4586-6"
         inkscape:connector-curvature="0"
         style="fill:#ffffff" />
    </g>
    <path
       style="fill:none;stroke:#000000;stroke-width:5;stroke-miterlimit:4;stroke-dasharray:none"
       inkscape:connector-curvature="0"
       d="m -107.64035,152.35269 c 0,-75.921634 85.5389,-137.465834 161.45259,-137.465834 75.92431,0 161.46851,61.5442 161.46851,137.465834 0,75.92163 -57.5442,137.46583 -133.46851,137.46583 -8.4475,0 -68.70969,-0.80213 -76.73627,-2.26079 l -86.31338,47.52151 27.60972,-73.50995 c -32.83434,-25.12014 -54.01266,-64.68389 -54.01266,-109.21396 z"
       id="path3319"
       sodipodi:nodetypes="sssscccss" />
    <g
       id="g3180"
       transform="matrix(0.48918307,0,0,0.48918307,-28.59164,52.192774)">
      <g
         display="none"
         transform="translate(-120.3,-258.59)"
         id="layer1-0"
         style="fill:none;stroke:#000000;display:none">
        <g
           transform="translate(3.2759,-41.759)"
           id="g3801"
           style="stroke-width:0.40000001">
          <path
             transform="translate(10,42)"
             d="m 478.81,417.99 c 0,25.663 -81.859,46.467 -182.84,46.467 -100.981,0 -182.84,-20.804 -182.84,-46.467 0,-25.663 81.859,-46.467 182.84,-46.467 100.981,0 182.84,20.804 182.84,46.467 z"
             id="path2985"
             inkscape:connector-curvature="0" />
          <path
             transform="translate(9.0914,103.04)"
             d="m 478.81,417.99 c 0,25.663 -81.859,46.467 -182.84,46.467 -100.981,0 -182.84,-20.804 -182.84,-46.467 0,-25.663 81.859,-46.467 182.84,-46.467 100.981,0 182.84,20.804 182.84,46.467 z"
             id="path2985-1"
             inkscape:connector-curvature="0" />
        </g>
        <g
           transform="translate(-30.632,2.4335)"
           id="g3797"
           style="stroke-width:0.37353">
          <path
             transform="matrix(0,1,-1.1468,0,855.84,149.79)"
             d="m 478.81,417.99 c 0,25.663 -81.859,46.467 -182.84,46.467 -100.981,0 -182.84,-20.804 -182.84,-46.467 0,-25.663 81.859,-46.467 182.84,-46.467 100.981,0 182.84,20.804 182.84,46.467 z"
             id="path2985-7"
             inkscape:connector-curvature="0" />
          <path
             transform="matrix(0,1,-1.1468,0,781.69,150.88)"
             d="m 478.81,417.99 c 0,25.663 -81.859,46.467 -182.84,46.467 -100.981,0 -182.84,-20.804 -182.84,-46.467 0,-25.663 81.859,-46.467 182.84,-46.467 100.981,0 182.84,20.804 182.84,46.467 z"
             id="path2985-1-4"
             inkscape:connector-curvature="0" />
        </g>
        <path
           d="m 138.28,373.37 v 175.82 l 107.44,39.937 2.1429,-208.56 z"
           id="path3805"
           inkscape:connector-curvature="0"
           style="stroke-width:0.40000001" />
        <path
           d="m 272.5,385.87 h 165.67 l -11.429,212.25 -167.81,3.2186 z"
           id="path3807"
           inkscape:connector-curvature="0"
           style="stroke-width:0.40000001" />
      </g>
      <g
         transform="translate(-120.3,-258.59)"
         id="layer3">
        <path
           d="m 479.96,375.82 12.09,60.945 c 0,0 -14.523,-24.256 -97.519,-16.201 0,0 -49.915,0.9314 -104.58,15.802 0,0 10.79,66.908 37.655,122.09 -0.49376,0.10632 27.259,61.812 51.81,60.659 -1.0938,-0.28113 -70.676,17.285 -70.676,17.285 0,0 -23.138,2.9156 -48.484,-50.009 0.38744,-0.60008 -29.052,-55.743 -42.106,-128.36 -0.49376,0.10632 -78.569,26.217 -82.772,57.088 l -11.983,-60.451 c 0,0 -2.0722,-26.42 86.228,-57.832 0.28112,-1.0938 -12.338,-98.091 20.661,-117.6 0.49376,-0.10632 76.708,-18.067 76.708,-18.067 0,0 -34.32,3.7733 -24.862,114.88 -0.60008,-0.38743 42.426,-11.718 95.865,-15.475 -0.10632,-0.49376 85.572,-8.0925 101.96,15.244 z"
           id="path3858"
           inkscape:connector-curvature="0"
           style="fill:url(#radialGradient3866);stroke:#000000;stroke-width:5" />
      </g>
      <g
         transform="translate(-120.3,-258.59)"
         id="layer2"
         style="stroke:#000000;stroke-width:5">
        <path
           d="m 232.55,277.71 77.026,-16.586 c 0,0 34.001,-5.2546 71.117,107.13 -0.10632,-0.49377 41.582,-8.437 41.582,-8.437 l -57.21,91.89 -103.77,-57.22 46.907,-10.1 c 0,0 -31.784,-106.82 -75.667,-106.67 z"
           id="path3849"
           inkscape:connector-curvature="0"
           style="fill:url(#linearGradient3874)" />
        <path
           d="m 309.73,636.18 78.401,-17.398 c 0,0 16.249,-13.315 18.271,-37.517 0.49376,-0.10632 49.657,-11.726 49.657,-11.726 l -82.567,-57.136 -80.723,95.396 41.088,-8.3306 c 0,0 -3.3898,32.246 -24.128,36.711 z"
           id="path3851"
           inkscape:connector-curvature="0"
           style="fill:url(#linearGradient3882)" />
        <path
           d="m 122.8,454.27 13.221,63.801 c 0,0 5.7268,12.2 15.146,12.755 -0.10632,-0.49377 12.257,52.126 12.257,52.126 l 17.316,-75.543 -54.527,-97.273 12.477,60.345 c 0,0 -12.032,-3.0924 -15.89,-16.211 z"
           id="path3853"
           inkscape:connector-curvature="0"
           style="fill:#628fa8" />
        <path
           d="m 234.57,395.07 -40.282,110.45 81.616,93.506 -12.446,-65.001 c 0,0 230,-35.575 230.33,-94.028 0.98752,-0.21264 -12.302,-61.933 -12.302,-61.933 0,0 28.946,55.249 -229.59,97.484 0.10632,0.49377 -17.33,-80.483 -17.33,-80.483 z"
           id="path3855"
           inkscape:connector-curvature="0"
           style="fill:url(#linearGradient3890)" />
      </g>
    </g>
    <text
       xml:space="preserve"
       style="font-size:40px;font-style:normal;font-weight:normal;line-height:125%;letter-spacing:0px;word-spacing:0px;fill:#000000;fill-opacity:1;stroke:none;font-family:Sans"
       x="174"
       y="349.50504"
       id="text4108"
       sodipodi:linespacing="125%"><tspan
         sodipodi:role="line"
         id="tspan4110"
         x="174"
         y="349.50504">1</tspan></text>
    <text
       xml:space="preserve"
       style="font-size:40px;font-style:normal;font-weight:normal;line-height:125%;letter-spacing:0px;word-spacing:0px;fill:#000000;fill-opacity:1;stroke:none;font-family:Sans"
       x="772"
       y="350.36218"
       id="text4112"
       sodipodi:linespacing="125%"><tspan
         sodipodi:role="line"
         id="tspan4114"
         x="772"
         y="350.36218">2</tspan></text>
  </g>
</svg>
