<?xml version="1.0" encoding="UTF-8" standalone="no"?>
<!-- Created with Inkscape (http://www.inkscape.org/) by Xato -->
<svg
   xmlns:svg="http://www.w3.org/2000/svg"
   xmlns="http://www.w3.org/2000/svg"
   version="1.0"
   width="303.00098"
   height="72.345001"
   id="svg2">
  <defs
     id="defs4" />
  <path
     d="M 79.082316,72.17939 C 72.988806,71.23523 69.030576,67.70644 67.514106,61.86626 C 66.788246,59.07085 67.018476,53.69653 67.970826,51.20484 C 69.316126,47.68506 71.462146,45.293 74.727656,43.67335 C 78.836776,41.63528 84.177406,41.64482 88.517446,43.69798 C 90.302996,44.54268 92.886436,46.87924 93.634696,48.32621 L 94.073266,49.17431 L 90.804816,50.8725 C 87.800956,52.43323 87.521466,52.52373 87.352236,51.99055 C 87.032736,50.98386 84.621076,49.00459 83.445186,48.78399 C 80.442196,48.22063 78.048436,49.40042 76.690696,52.11301 C 76.110626,53.27194 75.924946,54.18345 75.830886,56.33387 C 75.563826,62.44007 77.857696,65.75395 82.359476,65.7655 C 84.726386,65.77157 86.379796,64.91431 87.491326,63.10473 C 87.904266,62.43246 88.346186,61.87878 88.473376,61.87434 C 88.818896,61.86227 94.098406,64.54932 94.098406,64.73725 C 94.098406,65.87551 90.452866,69.52939 88.155896,70.69336 C 85.349986,72.11522 82.101646,72.64722 79.082316,72.17939 z M 107.46272,72.20961 C 107.13237,72.13353 106.11878,71.9212 105.21031,71.73775 C 101.51417,70.9914 97.941466,68.39043 96.247926,65.21302 C 93.880656,60.77158 93.783116,54.02753 96.022226,49.60886 C 97.713356,46.27158 101.29688,43.55032 105.21031,42.6316 C 107.36016,42.12691 111.82638,42.12196 113.91964,42.62196 C 121.73082,44.48775 125.96156,51.24673 124.7335,59.89807 C 123.88037,65.90813 120.24147,70.16598 114.67044,71.67278 C 113.08661,72.10116 108.48125,72.44417 107.46272,72.20961 z M 112.35259,65.30403 C 115.12842,64.1445 116.40072,61.56494 116.41819,57.06111 C 116.42718,54.74347 116.30374,53.92697 115.76042,52.71019 C 114.51026,49.91044 112.64806,48.6703 109.67673,48.6587 C 107.62075,48.65068 106.27099,49.18376 105.00029,50.50564 C 103.67374,51.88561 103.06859,53.50359 102.88738,56.15484 C 102.59151,60.48372 103.95834,63.88667 106.49785,65.14371 C 108.03549,65.90483 110.73722,65.97881 112.35259,65.30403 z M 229.39331,72.20846 C 229.06296,72.13301 228.0564,71.92179 227.15652,71.73907 C 223.0572,70.90673 219.54864,68.18386 217.82257,64.49533 C 214.99221,58.44701 216.21499,50.1682 220.53559,46.12678 C 223.32972,43.51321 226.94152,42.22856 231.49556,42.22856 C 240.97895,42.22856 246.66478,47.7589 246.74516,57.06111 C 246.81025,64.59442 243.10673,69.94646 236.64602,71.65562 C 235.0091,72.08866 230.40532,72.43959 229.39331,72.20846 z M 234.53364,65.19589 C 236.65893,64.23076 237.82318,62.25747 238.27004,58.86304 C 238.72297,55.42246 237.82405,51.85074 236.1006,50.24313 C 234.32971,48.59128 230.79613,48.13751 228.47053,49.26331 C 224.57043,51.15132 223.4008,58.9046 226.34493,63.35349 C 227.84431,65.61921 231.6941,66.48538 234.53364,65.19589 z M 286.75476,72.16803 C 283.65914,71.75745 280.73406,70.44727 277.96555,68.23123 L 276.08376,66.72495 L 278.67506,64.45335 L 281.26635,62.18174 L 282.50897,63.16847 C 285.16333,65.27628 287.37033,66.1083 290.30718,66.1083 C 293.52723,66.1083 295.37213,64.83732 294.89744,62.94599 C 294.62247,61.85039 293.48227,61.37043 288.41065,60.21543 C 285.95383,59.65592 283.26166,58.90472 282.428,58.5461 C 278.41768,56.82091 276.92746,52.56127 278.80324,48.18524 C 280.42461,44.40273 284.54485,42.22551 290.0583,42.23781 C 294.00633,42.24661 298.03112,43.37713 301.37125,45.41548 L 302.7736,46.27128 L 300.16995,48.79299 L 297.56635,51.31471 L 296.81554,50.63289 C 294.7526,48.75951 289.34326,47.71073 287.33153,48.79412 C 285.55606,49.75027 285.73817,51.62429 287.68567,52.438 C 288.25367,52.67532 290.23618,53.19964 292.09124,53.60315 C 298.69802,55.04024 300.84055,56.09011 302.21257,58.56272 C 303.22108,60.38026 303.26979,64.00662 302.31405,66.11556 C 301.55285,67.79506 299.69725,69.71829 298.00496,70.58163 C 295.18743,72.01903 290.55569,72.67215 286.75476,72.16803 z M 26.976516,71.56228 C 26.480986,71.49375 25.264676,71.23586 24.273616,70.98919 C 12.764556,68.12464 3.8370261,59.34244 0.8036561,47.9013 C 0.1080661,45.27771 0.0065161011,44.30968 0.00027610107,40.2431 C -0.0059938989,36.16769 0.089856101,35.22787 0.7701061,32.69474 C 2.3096761,26.96169 4.9346461,22.26809 8.9545761,18.06047 C 15.548346,11.15885 24.750996,7.802516 34.540896,8.728783 C 44.081456,9.631457 52.630716,14.732909 57.911436,22.67428 C 64.128606,32.02393 64.813436,44.7489 59.638666,54.7682 C 55.203416,63.35567 46.561826,69.63087 36.835516,71.327 C 34.473606,71.73888 29.168896,71.86548 26.976516,71.56228 z M 36.587406,65.50487 C 46.346436,63.49062 54.077886,56.30517 56.619316,46.88763 C 57.518036,43.55733 57.533316,37.12157 56.650426,33.7838 C 54.539466,25.80334 48.800946,19.16496 41.478696,16.23299 C 37.831576,14.772606 35.511316,14.343846 31.331176,14.35782 C 26.984846,14.372352 24.112996,14.990928 20.546256,16.68082 C 11.126466,21.14384 4.9912461,31.31055 5.6024161,41.44439 C 6.5486361,57.13381 21.372886,68.64514 36.587406,65.50487 z M 19.133716,49.36773 C 16.255216,48.34686 14.047846,45.35095 13.658706,41.93687 C 13.081866,36.87609 14.985556,32.94602 18.867826,31.18292 C 20.971616,30.2275 24.793036,30.25007 27.062906,31.23132 C 28.441096,31.82709 31.030856,34.16614 31.030856,34.81514 C 31.030856,34.92161 30.136486,35.44975 29.043366,35.98879 L 27.055876,36.96887 L 25.995286,35.90828 C 25.403666,35.31666 24.498406,34.76585 23.948006,34.66259 C 22.583066,34.40653 20.949046,35.01374 20.209976,36.05166 C 18.986996,37.76918 18.902796,42.25923 20.060426,44.02601 C 20.660366,44.94163 21.669736,45.58464 22.621846,45.65774 C 24.622716,45.81135 25.127346,45.63846 26.311456,44.3937 L 27.505496,43.13851 L 29.042936,43.98508 C 29.888526,44.4507 30.702856,44.94205 30.852546,45.07698 C 31.371366,45.54462 28.991736,47.97304 27.077186,48.92975 C 25.450206,49.74277 24.937786,49.85055 22.799126,49.82968 C 21.462796,49.81664 19.813366,49.60876 19.133716,49.36773 z M 37.453336,49.36773 C 34.614626,48.36097 32.444296,45.45949 31.977656,42.04739 C 31.301736,37.10492 33.293486,32.95133 37.187446,31.18292 C 39.447156,30.15669 43.277156,30.23573 45.566566,31.35583 C 46.983576,32.04911 49.350476,34.22436 49.350476,34.83335 C 49.350476,34.93688 48.422296,35.47062 47.287866,36.01942 L 45.225246,37.01725 L 44.157566,35.8522 C 43.197516,34.80461 42.942396,34.68715 41.627066,34.68715 C 39.816766,34.68715 38.651826,35.39854 38.023296,36.88784 C 37.460956,38.2203 37.390316,41.48806 37.891656,42.97691 C 38.910816,46.00359 42.631016,46.72094 44.743056,44.29804 L 45.691596,43.2099 L 47.521036,44.1334 C 48.527226,44.64132 49.350476,45.14239 49.350476,45.24688 C 49.350476,45.93343 46.986766,48.13523 45.396806,48.92975 C 43.769816,49.74277 43.257406,49.85055 41.118746,49.82968 C 39.782416,49.81664 38.132986,49.60876 37.453336,49.36773 z M 126.83347,57.21128 L 126.83347,42.946 L 131.03797,42.946 L 135.24247,42.946 L 135.24247,43.97521 L 135.24247,45.00443 L 136.96332,43.96819 C 139.24643,42.59337 140.61986,42.2322 143.50132,42.24886 C 146.37194,42.26547 148.05763,42.90546 149.9352,44.69154 L 151.20033,45.89503 L 152.19655,45.02034 C 154.42625,43.06264 158.52073,41.85795 161.67078,42.2328 C 165.03378,42.633 167.19053,43.86185 168.35571,46.04169 C 169.01608,47.27714 169.0303,47.52651 169.11654,59.38861 L 169.20442,71.47655 L 165.00233,71.47655 L 160.80024,71.47655 L 160.70995,61.64102 C 160.62981,52.91225 160.55994,51.69623 160.08901,50.83452 C 158.64003,48.18324 154.25793,48.35164 152.75211,51.11648 C 152.27218,51.99768 152.2022,53.16435 152.11174,61.79118 L 152.01018,71.47655 L 147.83083,71.47655 L 143.65148,71.47655 L 143.65148,61.55103 C 143.65148,50.65446 143.60039,50.30831 141.85938,49.408 C 140.61188,48.76289 138.30358,48.82782 137.13406,49.54092 C 135.27784,50.67272 135.24247,50.90009 135.24247,61.70119 L 135.24247,71.47655 L 131.03797,71.47655 L 126.83347,71.47655 L 126.83347,57.21128 z M 171.88171,57.21128 L 171.88171,42.946 L 176.08622,42.946 L 180.29072,42.946 L 180.29072,44.17398 L 180.29072,45.40196 L 181.26451,44.58257 C 183.41749,42.77096 187.39833,41.77402 190.32146,42.31438 C 192.60073,42.73573 193.90953,43.39327 195.21855,44.77469 L 196.30579,45.92205 L 197.39358,45.0605 C 200.30914,42.75134 203.94006,41.74647 207.38351,42.29577 C 209.83154,42.68628 211.22803,43.29669 212.43528,44.50395 C 214.37677,46.44544 214.36792,46.38003 214.46819,59.53877 L 214.55914,71.47655 L 210.36085,71.47655 L 206.16255,71.47655 L 206.06201,61.79118 C 205.9499,50.99137 205.84232,50.34727 203.99067,49.38974 C 202.50248,48.62017 200.04922,48.91274 198.92017,49.99444 C 197.59183,51.26708 197.40906,52.79561 197.40906,62.63185 L 197.40906,71.47655 L 193.21939,71.47655 L 189.02973,71.47655 L 188.93981,61.3407 C 188.85843,52.16796 188.79856,51.12925 188.30968,50.40933 C 187.55224,49.2939 186.29163,48.85361 184.3229,49.01687 C 182.22629,49.19073 180.95557,50.30098 180.57028,52.29558 C 180.43091,53.01709 180.31099,57.62797 180.3038,62.54198 L 180.29072,71.47655 L 176.08622,71.47655 L 171.88171,71.47655 L 171.88171,57.21128 z M 249.06439,57.21128 L 249.06439,42.946 L 253.2689,42.946 L 257.4734,42.946 L 257.4734,44.17398 L 257.4734,45.40196 L 258.38773,44.6326 C 262.36768,41.2837 270.29317,41.40129 272.92231,44.84826 C 274.4996,46.9162 274.59174,47.75844 274.59174,60.11206 L 274.59174,71.47655 L 270.38723,71.47655 L 266.18273,71.47655 L 266.18273,61.70645 C 266.18273,50.93815 266.08915,50.28634 264.41936,49.42286 C 263.0471,48.71323 260.77054,48.81435 259.54496,49.63936 C 257.66501,50.90488 257.63371,51.09337 257.52638,61.79118 L 257.42922,71.47655 L 253.24679,71.47655 L 249.06439,71.47655 L 249.06439,57.21128 z M 79.833126,39.14685 C 75.004046,38.70028 70.651186,35.95142 68.728836,32.13442 C 67.138726,28.97711 66.566136,23.09049 67.505746,19.56024 C 68.778306,14.779048 72.170756,11.104678 76.554956,9.759021 C 81.485636,8.245631 87.398646,9.240963 90.997756,12.19017 C 92.169346,13.150199 94.308276,15.84451 94.052266,16.03781 C 93.633606,16.35393 88.024086,19.22059 87.824166,19.22059 C 87.684996,19.22059 87.215166,18.68268 86.780096,18.02523 C 84.609236,14.744844 79.349936,14.759605 77.215056,18.05208 C 76.112736,19.75211 75.673776,21.95857 75.833286,24.99762 C 76.084296,29.77997 78.122766,32.412 81.780546,32.67658 C 82.739166,32.74591 84.001906,32.64476 84.586636,32.45178 C 85.574046,32.12591 87.186806,30.60804 87.980536,29.25758 C 88.303886,28.70742 88.453326,28.74666 91.208986,30.10527 C 92.798166,30.88878 94.098406,31.64558 94.098406,31.78706 C 94.098406,32.24345 92.429506,34.3557 91.181826,35.47844 C 88.200066,38.16164 83.968986,39.52932 79.833126,39.14685 z M 124.87811,39.03751 C 115.94469,37.83056 111.41236,29.8759 113.75773,19.52021 C 114.64036,15.623072 117.26604,12.007818 120.26288,10.563367 C 122.46062,9.504081 125.733,8.927031 128.49828,9.111143 C 133.92836,9.472683 137.8276,12.257917 139.76533,17.15923 C 140.52562,19.08231 141.24891,22.66245 141.24891,24.50263 L 141.24891,25.82766 L 131.32468,25.82766 L 121.40046,25.82766 L 121.58952,26.95387 C 122.26239,30.96211 124.36544,33.01292 127.81916,33.02879 C 129.93124,33.03849 131.00383,32.45175 133.08563,30.14788 L 134.95412,28.08007 L 137.86942,29.6362 C 139.47283,30.49207 140.82592,31.31596 140.87629,31.46707 C 140.92666,31.61818 140.37213,32.55108 139.64398,33.54019 C 136.60372,37.6701 130.78666,39.83579 124.87811,39.03751 z M 132.72999,19.79725 C 132.39422,18.11842 131.64873,16.95878 130.37378,16.13209 C 127.03719,13.9686 122.3162,15.90416 121.54682,19.75106 L 121.3526,20.72219 L 127.13379,20.72219 L 132.91498,20.72219 L 132.72999,19.79725 z M 150.25856,39.04787 C 147.23577,38.52152 144.62958,36.65538 143.56385,34.25419 C 142.70953,32.32932 142.74733,28.86203 143.64338,26.95997 C 145.34323,23.35166 148.69652,21.61853 156.53691,20.296 L 160.61965,19.60732 L 160.61793,17.79181 C 160.61588,15.622132 160.14342,14.954781 158.23019,14.419109 C 155.58452,13.678369 152.88164,14.886698 152.48776,16.98628 L 152.29396,18.0193 L 148.27304,18.0193 L 144.25212,18.0193 L 144.25212,17.1296 C 144.25212,15.516494 145.40589,13.026659 146.69167,11.865033 C 149.124,9.667564 152.58673,8.817212 157.93548,9.103858 C 163.58221,9.406474 166.55869,10.774304 168.00422,13.730904 C 168.68983,15.133208 168.71006,15.422 168.88322,26.27814 C 168.98071,32.38969 169.16913,37.62655 169.30194,37.91561 C 169.52521,38.40157 169.2494,38.44117 165.64212,38.44117 C 161.85021,38.44117 161.73576,38.42223 161.55975,37.76545 C 161.46015,37.3938 161.37681,36.78565 161.37456,36.414 C 161.36914,35.52136 161.23167,35.55321 159.79987,36.77877 C 157.75233,38.53139 153.33099,39.58287 150.25856,39.04787 z M 157.25537,32.62964 C 158.73457,32.01159 160.06003,30.30897 160.43953,28.53945 C 160.88817,26.44751 160.86715,24.62564 160.39441,24.62921 C 159.48099,24.6361 153.10761,26.72592 152.39712,27.25151 C 149.5526,29.35572 151.09239,33.03538 154.81744,33.03538 C 155.6242,33.03538 156.72127,32.8528 157.25537,32.62964 z M 181.25272,39.02343 C 178.55157,38.54621 176.93312,37.3311 175.87712,34.98747 C 175.40105,33.93093 175.3244,32.67344 175.24098,24.5513 L 175.14613,15.316404 L 173.0513,15.316404 L 170.95646,15.316404 L 171.04368,12.838751 L 171.13091,10.361097 L 173.15808,10.272295 L 175.18525,10.183493 L 175.18525,6.142872 L 175.18525,2.102252 L 179.38976,2.102252 L 183.59426,2.102252 L 183.59426,6.156594 L 183.59426,10.210936 L 186.14699,10.210936 L 188.69973,10.210936 L 188.69973,12.751525 L 188.69973,15.292111 L 186.22207,15.37934 L 183.74442,15.466565 L 183.65687,22.37396 C 183.60872,26.17303 183.65004,29.72812 183.7487,30.27416 C 184.04249,31.90014 184.82167,32.43474 186.8978,32.43474 L 188.69973,32.43474 L 188.69973,35.73828 L 188.69973,39.04182 L 187.2732,39.04442 C 186.48861,39.04586 185.17095,39.10496 184.34506,39.17576 C 183.51918,39.24655 182.12762,39.178 181.25272,39.02343 z M 240.80553,39.03713 C 234.98324,38.21205 230.87156,34.48843 229.53724,28.83232 C 229.02354,26.65479 229.0876,22.23731 229.66925,19.72929 C 231.07099,13.68512 234.88756,10.121969 240.89825,9.245904 C 250.10558,7.903922 256.32704,13.382765 257.0846,23.50017 L 257.25888,25.82766 L 247.28514,25.82766 C 237.92996,25.82766 237.32057,25.86026 237.45982,26.35323 C 237.54147,26.64228 237.69675,27.4481 237.80488,28.14391 C 238.23677,30.92319 240.7999,33.01548 243.78901,33.02879 C 245.94884,33.0384 247.66336,32.0921 249.29657,29.98899 C 250.04777,29.02168 250.80962,28.23274 250.98958,28.23579 C 251.16956,28.23885 252.62351,28.94896 254.22062,29.8138 L 257.12446,31.38625 L 256.2174,32.73638 C 254.75035,34.91998 253.29707,36.25084 251.19112,37.33917 C 248.09,38.94184 244.39545,39.54587 240.80553,39.03713 z M 248.66524,19.62897 C 248.41519,18.08802 247.20805,16.40251 245.9151,15.78896 C 242.42854,14.134479 238.41018,16.09282 237.48715,19.89631 L 237.28672,20.72219 L 243.06468,20.72219 L 248.84264,20.72219 L 248.66524,19.62897 z M 96.272816,24.10081 L 96.350816,9.760454 L 100.46425,9.677003 L 104.57769,9.59355 L 104.66876,11.092101 L 104.75982,12.590649 L 106.05993,11.715524 C 107.27987,10.89436 109.22758,10.200107 111.41482,9.806802 C 112.64892,9.584886 112.71835,9.797462 112.71835,13.798155 L 112.71835,17.03593 L 110.39086,17.40032 C 109.11073,17.60074 107.50156,18.03069 106.81492,18.35577 C 104.67384,19.3694 104.60966,19.69962 104.60966,29.70215 L 104.60966,38.44117 L 100.40225,38.44117 L 96.194826,38.44117 L 96.272816,24.10081 z M 192.00327,24.01726 L 192.00327,9.593343 L 196.13269,9.676898 L 200.26211,9.760454 L 200.3401,24.10081 L 200.41809,38.44117 L 196.21068,38.44117 L 192.00327,38.44117 L 192.00327,24.01726 z M 206.95579,24.5513 C 204.36667,16.91186 202.20684,10.458702 202.15617,10.210936 C 202.07822,9.829765 202.74019,9.747696 206.45865,9.677547 C 209.8107,9.614308 210.88573,9.685554 210.99012,9.977869 C 211.0654,10.188643 212.18855,14.719515 213.48601,20.04647 C 214.78347,25.37343 215.92021,29.73025 216.0121,29.7283 C 216.10398,29.72635 217.27034,25.23279 218.60401,19.74261 L 221.02885,9.760454 L 225.43632,9.677346 C 228.07563,9.627576 229.84379,9.7086 229.84379,9.879309 C 229.84379,10.036101 228.07159,15.344145 225.90556,21.67496 C 223.73954,28.00578 221.56515,34.36806 221.07359,35.81336 L 220.17984,38.44117 L 215.92156,38.44117 L 211.66328,38.44117 L 206.95579,24.5513 z M 192.00327,3.312013 L 192.00327,0 L 196.21793,0 L 200.43259,0 L 200.34735,3.228458 L 200.26211,6.456916 L 196.13269,6.540471 L 192.00327,6.624027 L 192.00327,3.312013 z"
     id="path2451"
     style="fill:#000000" />
</svg>
