<?xml version="1.0" encoding="UTF-8" standalone="no"?>
<svg
   xmlns:dc="http://purl.org/dc/elements/1.1/"
   xmlns:cc="http://creativecommons.org/ns#"
   xmlns:rdf="http://www.w3.org/1999/02/22-rdf-syntax-ns#"
   xmlns:svg="http://www.w3.org/2000/svg"
   xmlns="http://www.w3.org/2000/svg"
   xmlns:xlink="http://www.w3.org/1999/xlink"
   xmlns:sodipodi="http://sodipodi.sourceforge.net/DTD/sodipodi-0.dtd"
   xmlns:inkscape="http://www.inkscape.org/namespaces/inkscape"
   viewBox="0 0 178.17166 60.796957"
   id="svg2"
   version="1.1"
   inkscape:version="0.48.4 r9939"
   width="100%"
   height="100%"
   sodipodi:docname="uncoupling.svg">
  <sodipodi:namedview
     pagecolor="#ffffff"
     bordercolor="#666666"
     borderopacity="1"
     objecttolerance="10"
     gridtolerance="10"
     guidetolerance="10"
     inkscape:pageopacity="0"
     inkscape:pageshadow="2"
     inkscape:window-width="1248"
     inkscape:window-height="840"
     id="namedview71"
     showgrid="false"
     inkscape:zoom="3.1486264"
     inkscape:cx="85.008957"
     inkscape:cy="19.950037"
     inkscape:window-x="416"
     inkscape:window-y="0"
     inkscape:window-maximized="0"
     inkscape:current-layer="imagebot_27"
     fit-margin-top="0"
     fit-margin-left="0"
     fit-margin-right="0"
     fit-margin-bottom="0" />
  <defs
     id="defs4">
    <linearGradient
       id="imagebot_58">
      <stop
         id="imagebot_68"
         stop-color="#f9f9f9"
         stop-opacity=".98519"
         offset="0" />
      <stop
         id="imagebot_67"
         stop-color="#d5d5d5"
         offset="1" />
    </linearGradient>
    <linearGradient
       id="imagebot_59">
      <stop
         id="imagebot_66"
         stop-color="#555"
         offset="0" />
      <stop
         id="imagebot_65"
         offset="1" />
    </linearGradient>
    <linearGradient
       id="imagebot_57">
      <stop
         id="imagebot_64"
         stop-color="#ffea00"
         offset="0" />
      <stop
         id="imagebot_63"
         stop-color="#ffffa4"
         offset="1" />
    </linearGradient>
    <linearGradient
       id="imagebot_60">
      <stop
         id="imagebot_62"
         stop-color="#003e8c"
         offset="0"
         style="stop-color:#008c55;stop-opacity:1;" />
      <stop
         id="imagebot_61"
         stop-color="#0062db"
         offset="1"
         style="stop-color:#bbdb00;stop-opacity:1;" />
    </linearGradient>
    <linearGradient
       id="imagebot_48"
       y2="991.30969"
       xlink:href="#imagebot_60"
       y1="974.33728"
       x2="5.1105061"
       x1="33.77169"
       gradientTransform="scale(0.96280257,1.0386345)"
       gradientUnits="userSpaceOnUse" />
    <linearGradient
       id="imagebot_46"
       y2="1047.0392"
       xlink:href="#imagebot_60"
       y1="1018.2122"
       x2="35.658081"
       x1="11.717793"
       gradientTransform="scale(0.99953701,1.0004632)"
       gradientUnits="userSpaceOnUse" />
    <radialGradient
       id="imagebot_44"
       gradientUnits="userSpaceOnUse"
       xlink:href="#imagebot_58"
       cx="20.613001"
       cy="21.628"
       r="16"
       gradientTransform="matrix(0.88649,1.0425,-0.80006,0.68035,20.693,-16.22)" />
    <linearGradient
       id="imagebot_42"
       y2="523.70264"
       xlink:href="#imagebot_59"
       y1="523.66522"
       x2="37.111103"
       x1="42.905266"
       gradientTransform="scale(0.5127576,1.9502393)"
       gradientUnits="userSpaceOnUse" />
    <linearGradient
       id="imagebot_40"
       y2="727.03467"
       xlink:href="#imagebot_59"
       y1="725.50171"
       x2="21.055351"
       x1="28.793161"
       gradientTransform="scale(0.7098908,1.4086674)"
       gradientUnits="userSpaceOnUse" />
    <linearGradient
       id="imagebot_38"
       xlink:href="#imagebot_59"
       y1="1027.9158"
       x2="18.773529"
       x1="22.164017"
       gradientTransform="scale(0.99720197,1.0028059)"
       y2="1024.5253"
       gradientUnits="userSpaceOnUse" />
    <linearGradient
       id="imagebot_36"
       y2="771.5401"
       xlink:href="#imagebot_59"
       y1="771.5401"
       x2="24.022543"
       x1="27.461481"
       gradientTransform="scale(0.7587828,1.3179002)"
       gradientUnits="userSpaceOnUse" />
    <linearGradient
       id="imagebot_32"
       y2="-7.3061113"
       xlink:href="#imagebot_59"
       y1="-7.1943874"
       x2="1360.8851"
       x1="1354.976"
       gradientTransform="scale(0.7587828,1.3179002)"
       gradientUnits="userSpaceOnUse" />
    <linearGradient
       id="imagebot_29"
       y2="-7.0545177"
       xlink:href="#imagebot_59"
       y1="-7.0545177"
       x2="1352.0059"
       x1="1358.932"
       gradientTransform="scale(0.7587828,1.3179002)"
       gradientUnits="userSpaceOnUse" />
    <linearGradient
       id="imagebot_26"
       y2="0.26141"
       xlink:href="#imagebot_58"
       y1="0.73483998"
       x2="0.5"
       x1="0.51787001" />
    <radialGradient
       id="imagebot_24"
       gradientUnits="userSpaceOnUse"
       xlink:href="#imagebot_58"
       cx="49.838001"
       cy="29.105"
       r="9"
       gradientTransform="matrix(1.6843,0.059715,-0.018037,0.50876,-33.579,12.795)" />
    <linearGradient
       id="imagebot_22"
       y2="0.60701001"
       xlink:href="#imagebot_58"
       y1="0.49379"
       x2="-0.77778"
       x1="0.5" />
    <linearGradient
       id="imagebot_20"
       y2="0.39848"
       xlink:href="#imagebot_58"
       y1="0.11292"
       x2="-0.071429998"
       x1="0.61562002" />
    <linearGradient
       id="imagebot_18"
       y2="0.38402"
       xlink:href="#imagebot_58"
       y1="0.60891998"
       x2="-0.071429998"
       x1="0.85714" />
    <linearGradient
       id="imagebot_16"
       y2="0.35946"
       xlink:href="#imagebot_57"
       y1="-0.02153"
       x2="0.5" />
    <linearGradient
       id="imagebot_14"
       y2="0.78222001"
       xlink:href="#imagebot_57"
       y1="-0.35178"
       x1="-0.98506999" />
    <filter
       id="imagebot_7"
       y="-0.03861"
       width="1.2625999"
       x="-0.13129"
       height="1.0772001"
       color-interpolation-filters="sRGB">
      <feGaussianBlur
         id="imagebot_56"
         stdDeviation="0.27351" />
    </filter>
    <filter
       id="imagebot_5"
       y="-0.19092999"
       width="1.2489001"
       x="-0.12443"
       height="1.3818001"
       color-interpolation-filters="sRGB">
      <feGaussianBlur
         id="imagebot_55"
         stdDeviation="0.27351" />
    </filter>
    <filter
       id="imagebot_9"
       color-interpolation-filters="sRGB">
      <feGaussianBlur
         id="imagebot_54"
         stdDeviation="0.24812" />
    </filter>
    <filter
       id="imagebot_11"
       color-interpolation-filters="sRGB">
      <feGaussianBlur
         id="imagebot_53"
         stdDeviation="0.36349" />
    </filter>
    <clipPath
       id="clipPath16">
      <path
         inkscape:connector-curvature="0"
         id="path18"
         d="M 0,0 H 800 V 600 H 0 V 0 z" />
    </clipPath>
    <clipPath
       id="clipPath28">
      <path
         inkscape:connector-curvature="0"
         id="path30"
         d="M 233.23,277.42 H 568.71 V 132.26 H 233.23 v 145.16 z" />
    </clipPath>
    <clipPath
       id="clipPath32">
      <path
         inkscape:connector-curvature="0"
         id="path34"
         d="M 233.23,132.26 H 568.71 V 277.42 H 233.23 V 132.26 z" />
    </clipPath>
    <clipPath
       id="clipPath52">
      <path
         inkscape:connector-curvature="0"
         id="path54"
         d="m 507.61,388.52 h 17.831 V 370.688 H 507.61 v 17.832 z" />
    </clipPath>
    <clipPath
       id="clipPath56">
      <path
         inkscape:connector-curvature="0"
         id="path58"
         d="m 507.61,370.69 h 17.831 v 17.832 H 507.61 V 370.69 z" />
    </clipPath>
    <clipPath
       id="clipPath76">
      <path
         inkscape:connector-curvature="0"
         id="path78"
         d="m 285.43,413.65 h 17.831 V 395.819 H 285.43 v 17.831 z" />
    </clipPath>
    <clipPath
       id="clipPath80">
      <path
         inkscape:connector-curvature="0"
         id="path82"
         d="m 285.43,395.82 h 17.831 v 17.831 H 285.43 V 395.82 z" />
    </clipPath>
    <clipPath
       id="clipPath100">
      <path
         inkscape:connector-curvature="0"
         id="path102"
         d="m 528.51,357.24 h 11.682 V 345.558 H 528.51 v 11.682 z" />
    </clipPath>
    <clipPath
       id="clipPath104">
      <path
         inkscape:connector-curvature="0"
         id="path106"
         d="m 528.51,345.56 h 11.683 v 11.682 H 528.51 V 345.56 z" />
    </clipPath>
    <clipPath
       id="clipPath124">
      <path
         inkscape:connector-curvature="0"
         id="path126"
         d="m 273.75,370.52 h 11.683 V 358.837 H 273.75 v 11.683 z" />
    </clipPath>
    <clipPath
       id="clipPath128">
      <path
         inkscape:connector-curvature="0"
         id="path130"
         d="m 273.75,358.83 h 11.682 v 11.683 H 273.75 V 358.83 z" />
    </clipPath>
    <clipPath
       id="clipPath148">
      <path
         inkscape:connector-curvature="0"
         id="path150"
         d="m 503.09,321 h 9.031 v -9.031 H 503.09 V 321 z" />
    </clipPath>
    <clipPath
       id="clipPath152">
      <path
         inkscape:connector-curvature="0"
         id="path154"
         d="m 503.09,311.97 h 9.031 V 321 h -9.031 v -9.03 z" />
    </clipPath>
    <clipPath
       id="clipPath176">
      <path
         inkscape:connector-curvature="0"
         id="path178"
         d="m 380.45,290.36 h 42.023 V 203.817 H 380.45 v 86.543 z" />
    </clipPath>
    <clipPath
       id="clipPath180">
      <path
         inkscape:connector-curvature="0"
         id="path182"
         d="m 380.46,203.82 h 42.021 v 86.543 H 380.46 V 203.82 z" />
    </clipPath>
    <mask
       id="mask202">
      <g
         id="g204">
        <g
           id="g206"
           clip-path="url(#clipPath184)">
          <path
             inkscape:connector-curvature="0"
             id="path208"
             d="m 380.46,290.36 h 42.021 V 203.817 H 380.46 v 86.543 z" />
          <g
             id="g210">
            <g
               id="g214">
              <g
                 id="g216"
                 clip-path="url(#clipPath188)">
                <g
                   id="g218">
                  <g
                     id="g220">
                    <g
                       id="g222">
                      <g
                         id="g224">
                        <path
                           style="fill:url(#linearGradient196)"
                           inkscape:connector-curvature="0"
                           id="path226"
                           d="m 380.46,290.36 h 42.021 V 203.817 H 380.46 v 86.543 z" />
                      </g>
                    </g>
                  </g>
                </g>
              </g>
            </g>
          </g>
        </g>
      </g>
    </mask>
    <clipPath
       id="clipPath184">
      <path
         inkscape:connector-curvature="0"
         id="path186"
         d="m 380.46,290.36 h 42.022 V 203.817 H 380.46 v 86.543 z" />
    </clipPath>
    <clipPath
       id="clipPath188">
      <path
         inkscape:connector-curvature="0"
         id="path190"
         d="m 380.46,290.36 h 42.022 V 203.817 H 380.46 v 86.543 z" />
    </clipPath>
    <linearGradient
       id="linearGradient196"
       gradientUnits="userSpaceOnUse"
       gradientTransform="matrix(-3.8e-6,86.543,-86.543,-3.8e-6,401.44,203.81)">
      <stop
         id="stop198"
         stop-color="#231f20"
         offset="0" />
      <stop
         id="stop200"
         stop-color="#fff"
         offset="1" />
    </linearGradient>
    <clipPath
       id="clipPath228">
      <path
         inkscape:connector-curvature="0"
         id="path230"
         d="m 380.46,290.36 h 42.022 V 203.817 H 380.46 v 86.543 z" />
    </clipPath>
    <linearGradient
       id="linearGradient236"
       gradientUnits="userSpaceOnUse"
       gradientTransform="matrix(-3.8e-6,86.543,-86.543,-3.8e-6,401.44,203.81)">
      <stop
         id="stop238"
         stop-color="#fff"
         offset="0" />
      <stop
         id="stop240"
         stop-color="#fff"
         offset="1" />
    </linearGradient>
    <clipPath
       id="clipPath280">
      <path
         inkscape:connector-curvature="0"
         id="path282"
         d="m 376.94,297.56 h 49.046 v -7.704 H 376.94 v 7.704 z" />
    </clipPath>
    <clipPath
       id="clipPath284">
      <path
         inkscape:connector-curvature="0"
         id="path286"
         d="m 376.94,289.86 h 49.046 v 7.703 H 376.94 v -7.703 z" />
    </clipPath>
    <clipPath
       id="clipPath344">
      <path
         inkscape:connector-curvature="0"
         id="path346"
         d="m 353.81,496.26 h 62.813 V 294.64 H 353.81 v 201.62 z" />
    </clipPath>
    <clipPath
       id="clipPath348">
      <path
         inkscape:connector-curvature="0"
         id="path350"
         d="m 353.81,294.65 h 62.813 V 496.26 H 353.81 V 294.65 z" />
    </clipPath>
    <linearGradient
       inkscape:collect="always"
       xlink:href="#imagebot_59"
       id="linearGradient3375"
       x1="26.784081"
       y1="788.84039"
       x2="23.345142"
       y2="788.84039"
       gradientTransform="scale(0.7587828,1.3179002)"
       gradientUnits="userSpaceOnUse" />
  </defs>
  <g
     id="imagebot_2"
     label="Layer 1"
     transform="matrix(1.5154087,-0.04461353,-0.38330782,1.5280067,137.43702,-5.2670846)">
    <g
       id="imagebot_27"
       transform="matrix(0.85294,0.26154,0,0.85294,-2.2518,-859.5)"
       label="Layer 1">
      <path
         id="imagebot_47"
         d="m 41.44,1026.2 c 0.134,9 -7.394,16.1 -15.327,18.7 -3.432,1.1 1.313,-1.6 -1.218,-1.6 -9.609,-0.2 -17.698,-6.4 -17.5,-17.5 0.1138,-6.4 3.569,-9.2 6.508,-13.1 -0.332,-0.1 3.211,-2.3 10.037,-4 6.99,-1.8 17.325,5.6 17.5,17.5 z"
         style="fill:url(#imagebot_48);fill-rule:evenodd"
         inkscape:connector-curvature="0" />
      <path
         id="imagebot_45"
         d="m 37.838,1028.3 c 0.181,10 -8.894,17.7 -17.5,17.5 -9.609,-0.2 -17.698,-6.4 -17.5,-17.5 0.1577,-8.9 9.057,-17 17.5,-17.5 9.805,-0.6 17.574,6.6 17.5,17.5 z"
         style="fill:url(#imagebot_46);fill-rule:evenodd"
         inkscape:connector-curvature="0" />
      <path
         id="imagebot_43"
         d="M 44,23 C 44,31.837 36.837,39 28,39 19.163,39 12,31.837 12,23 12,14.163 19.163,7 28,7 c 8.837,0 16,7.163 16,16 z"
         transform="matrix(0.79687,0,0,0.79687,-1.9744,1010)"
         style="fill:url(#imagebot_44);fill-rule:evenodd"
         inkscape:connector-curvature="0" />
      <path
         id="imagebot_41"
         d="m 20.588,1017.7 -1.559,2.7 1.559,8.6 1.412,-8.8 -1.412,-2.5 z"
         style="fill:url(#imagebot_42);stroke-width:1px"
         inkscape:connector-curvature="0" />
      <path
         id="imagebot_39"
         d="m 15.029,1018.7 -0.082,3.2 5.493,7.7 -2.623,-8.6 -2.788,-2.3 z"
         style="fill:url(#imagebot_40);stroke-width:1px"
         inkscape:connector-curvature="0" />
      <path
         id="imagebot_37"
         d="m 22.102,1029.1 c 0,1 -0.757,1.7 -1.69,1.7 -0.934,0 -1.691,-0.7 -1.691,-1.7 0,-0.9 0.757,-1.7 1.691,-1.7 0.933,0 1.69,0.8 1.69,1.7 z"
         style="fill:url(#imagebot_38);fill-rule:evenodd"
         inkscape:connector-curvature="0" />
      <rect
         id="imagebot_35"
         height="2.4256999"
         width="1.3966"
         y="1038.4"
         x="19.625"
         style="fill:url(#linearGradient3375)" />
      <rect
         id="imagebot_33"
         height="2.4256999"
         width="1.3966"
         y="1015.6"
         x="20.139"
         style="fill:url(#imagebot_36)" />
      <rect
         id="imagebot_31"
         transform="matrix(0,1,-1,0,0,0)"
         height="2.4256999"
         width="1.3966"
         y="-32.783001"
         x="1028.5"
         style="fill:url(#imagebot_32)" />
      <rect
         id="imagebot_30"
         transform="matrix(0,1,-1,0,0,0)"
         height="2.4256999"
         width="1.3966"
         y="-10.51"
         x="1027.9" />
      <rect
         id="imagebot_28"
         transform="matrix(0,1,-1,0,0,0)"
         height="2.4256999"
         width="1.3966"
         y="-10.51"
         x="1027.9"
         style="fill:url(#imagebot_29)" />
    </g>
    <path
       id="imagebot_10"
       transform="translate(-3.2875,-0.85984)"
       label="Layer 1"
       d="M 19,9 C 11.182,10.639 8.185,15.68 7,22 7,22 4.7259,9.715 19,9 z"
       inkscape:connector-curvature="0"
       style="fill:#ffffff;fill-opacity:0.30357002;stroke-width:1px;filter:url(#imagebot_11)" />
    <path
       id="imagebot_8"
       transform="translate(-3.2875,-0.85984)"
       label="Layer 1"
       d="m 18,13 c -3.877,0.937 -5.677,3.59 -7,7 -0.441,-4.528 4.482,-7.716 7,-7 z"
       inkscape:connector-curvature="0"
       style="fill:#ffffff;stroke-width:1px;filter:url(#imagebot_9)" />
    <path
       id="imagebot_4"
       transform="translate(-3.2875,-0.85984)"
       label="Layer 1"
       d="M 34.181,37.562 C 30.338,38.298 28.434,39.289 32,41 c -0.94,0.024 -7.62,-2.87 2.181,-3.438 z"
       inkscape:connector-curvature="0"
       style="fill:#ffffff;stroke-width:1px;filter:url(#imagebot_5)" />
    <title
       id="title67">Layer 1</title>
  </g>
  <metadata
     id="metadata69">
    <rdf:RDF>
      <cc:Work>
        <dc:format>image/svg+xml</dc:format>
        <dc:type
           rdf:resource="http://purl.org/dc/dcmitype/StillImage" />
        <cc:license
           rdf:resource="http://creativecommons.org/licenses/publicdomain/" />
        <dc:publisher>
          <cc:Agent
             rdf:about="http://openclipart.org/">
            <dc:title>Openclipart</dc:title>
          </cc:Agent>
        </dc:publisher>
        <dc:title></dc:title>
      </cc:Work>
      <cc:License
         rdf:about="http://creativecommons.org/licenses/publicdomain/">
        <cc:permits
           rdf:resource="http://creativecommons.org/ns#Reproduction" />
        <cc:permits
           rdf:resource="http://creativecommons.org/ns#Distribution" />
        <cc:permits
           rdf:resource="http://creativecommons.org/ns#DerivativeWorks" />
      </cc:License>
    </rdf:RDF>
  </metadata>
  <g
     id="g10"
     transform="matrix(0.16702369,0,0,-0.16702369,-38.644271,82.88751)">
    <g
       id="g12">
      <g
         id="g14"
         clip-path="url(#clipPath16)">
        <g
           id="g20"
           transform="translate(571.64,302.39)">
          <path
             style="fill:#00caf0"
             inkscape:connector-curvature="0"
             id="path22"
             d="m 0,0 c 0,-93.964 -76.172,-170.13 -170.13,-170.13 -93.959,0 -170.14,76.162 -170.14,170.13 0,93.957 76.177,170.12 170.14,170.12 C -76.172,170.12 0,93.957 0,0" />
        </g>
        <g
           id="g24">
          <g
             id="g36">
            <g
               style="opacity:0.8"
               id="g38"
               clip-path="url(#clipPath28)">
              <g
                 id="g40">
                <g
                   id="g42"
                   clip-path="url(#clipPath32)">
                  <g
                     id="g44"
                     transform="translate(401.52,132.26)">
                    <path
                       style="fill:#ffffff"
                       inkscape:connector-curvature="0"
                       id="path46"
                       d="m 0,0 c 83.247,0 152.49,59.808 167.2,138.8 -0.709,0.057 -1.42,0.107 -2.142,0.107 -12.435,0 -22.818,-8.711 -25.426,-20.357 -5.404,3.312 -11.735,5.255 -18.537,5.255 -19.155,0 -34.728,-15.151 -35.506,-34.115 -2.587,0.775 -5.325,1.206 -8.164,1.206 -12.91,0 -23.79,-8.619 -27.249,-20.409 -7.539,5.831 -16.969,9.336 -27.239,9.336 -11.971,0 -22.818,-4.741 -30.83,-12.415 -4.35,12.122 -15.907,20.809 -29.528,20.809 -6.509,0 -12.552,-1.979 -17.567,-5.365 -3.16,4.203 -8.173,6.933 -13.839,6.933 -1.057,0 -2.085,-0.11 -3.089,-0.29 -3.401,16.801 -18.244,29.448 -36.044,29.448 -2.433,0 -4.804,-0.249 -7.105,-0.698 0.01,0.233 0.036,0.461 0.036,0.698 0,10.098 -8.185,18.279 -18.278,18.279 -4.585,0 -8.764,-1.698 -11.973,-4.487 -4.217,7.414 -12.175,12.427 -21.316,12.427 -0.569,0 -1.126,-0.046 -1.686,-0.084 12.11,-82.088 82.833,-145.08 168.28,-145.08" />
                  </g>
                </g>
              </g>
            </g>
          </g>
        </g>
        <g
           id="g48">
          <g
             id="g60">
            <g
               style="opacity:0.8"
               id="g62"
               clip-path="url(#clipPath52)">
              <g
                 id="g64">
                <g
                   id="g66"
                   clip-path="url(#clipPath56)">
                  <g
                     id="g68"
                     transform="translate(524.62,380.43)">
                    <path
                       style="fill:#ffffff"
                       inkscape:connector-curvature="0"
                       id="path70"
                       d="m 0,0 c -4.012,0 -7.275,3.261 -7.275,7.275 0,0.454 -0.368,0.819 -0.822,0.819 -0.452,0 -0.819,-0.365 -0.819,-0.819 C -8.916,3.261 -12.18,0 -16.191,0 c -0.452,0 -0.822,-0.368 -0.822,-0.822 0,-0.451 0.37,-0.819 0.822,-0.819 4.011,0 7.275,-3.264 7.275,-7.275 0,-0.454 0.367,-0.821 0.819,-0.821 0.454,0 0.822,0.367 0.822,0.821 0,4.011 3.263,7.275 7.275,7.275 0.453,0 0.818,0.368 0.818,0.819 C 0.818,-0.368 0.453,0 0,0" />
                  </g>
                </g>
              </g>
            </g>
          </g>
        </g>
        <g
           id="g72">
          <g
             id="g84">
            <g
               style="opacity:0.8"
               id="g86"
               clip-path="url(#clipPath76)">
              <g
                 id="g88">
                <g
                   id="g90"
                   clip-path="url(#clipPath80)">
                  <g
                     id="g92"
                     transform="translate(302.44,405.55)">
                    <path
                       style="fill:#ffffff"
                       inkscape:connector-curvature="0"
                       id="path94"
                       d="m 0,0 c -4.011,0 -7.275,3.262 -7.275,7.275 0,0.454 -0.368,0.819 -0.82,0.819 -0.453,0 -0.821,-0.365 -0.821,-0.819 C -8.916,3.262 -12.18,0 -16.19,0 c -0.453,0 -0.821,-0.367 -0.821,-0.821 0,-0.452 0.368,-0.819 0.821,-0.819 4.01,0 7.274,-3.264 7.274,-7.276 0,-0.453 0.368,-0.821 0.821,-0.821 0.452,0 0.82,0.368 0.82,0.821 0,4.012 3.264,7.276 7.275,7.276 0.453,0 0.82,0.367 0.82,0.819 C 0.82,-0.367 0.453,0 0,0" />
                  </g>
                </g>
              </g>
            </g>
          </g>
        </g>
        <g
           id="g96">
          <g
             id="g108">
            <g
               style="opacity:0.8"
               id="g110"
               clip-path="url(#clipPath100)">
              <g
                 id="g112">
                <g
                   id="g114"
                   clip-path="url(#clipPath104)">
                  <g
                     id="g116"
                     transform="translate(539.66,351.94)">
                    <path
                       style="fill:#ffffff"
                       inkscape:connector-curvature="0"
                       id="path118"
                       d="m 0,0 c -2.63,0 -4.768,2.138 -4.768,4.765 0,0.298 -0.24,0.538 -0.538,0.538 -0.297,0 -0.536,-0.24 -0.536,-0.538 C -5.842,2.138 -7.981,0 -10.609,0 c -0.295,0 -0.538,-0.24 -0.538,-0.538 0,-0.295 0.243,-0.538 0.538,-0.538 2.628,0 4.767,-2.138 4.767,-4.765 0,-0.298 0.239,-0.538 0.536,-0.538 0.298,0 0.538,0.24 0.538,0.538 0,2.627 2.138,4.765 4.768,4.765 0.295,0 0.535,0.243 0.535,0.538 C 0.535,-0.24 0.295,0 0,0" />
                  </g>
                </g>
              </g>
            </g>
          </g>
        </g>
        <g
           id="g120">
          <g
             id="g132">
            <g
               style="opacity:0.8"
               id="g134"
               clip-path="url(#clipPath124)">
              <g
                 id="g136">
                <g
                   id="g138"
                   clip-path="url(#clipPath128)">
                  <g
                     id="g140"
                     transform="translate(284.89,365.21)">
                    <path
                       style="fill:#ffffff"
                       inkscape:connector-curvature="0"
                       id="path142"
                       d="m 0,0 c -2.629,0 -4.768,2.138 -4.768,4.765 0,0.298 -0.24,0.538 -0.537,0.538 -0.297,0 -0.536,-0.24 -0.536,-0.538 C -5.841,2.138 -7.98,0 -10.609,0 c -0.295,0 -0.537,-0.24 -0.537,-0.538 0,-0.295 0.242,-0.538 0.537,-0.538 2.629,0 4.768,-2.138 4.768,-4.765 0,-0.298 0.239,-0.538 0.536,-0.538 0.297,0 0.537,0.24 0.537,0.538 0,2.627 2.139,4.765 4.768,4.765 0.295,0 0.537,0.243 0.537,0.538 C 0.537,-0.24 0.295,0 0,0" />
                  </g>
                </g>
              </g>
            </g>
          </g>
        </g>
        <g
           id="g144">
          <g
             id="g156">
            <g
               style="opacity:0.8"
               id="g158"
               clip-path="url(#clipPath148)">
              <g
                 id="g160">
                <g
                   id="g162"
                   clip-path="url(#clipPath152)">
                  <g
                     id="g164"
                     transform="translate(511.71,316.9)">
                    <path
                       style="fill:#ffffff"
                       inkscape:connector-curvature="0"
                       id="path166"
                       d="M 0,0 C -2.032,0 -3.687,1.652 -3.687,3.685 -3.687,3.915 -3.872,4.1 -4.103,4.1 -4.331,4.1 -4.516,3.915 -4.516,3.685 -4.516,1.652 -6.168,0 -8.202,0 c -0.229,0 -0.416,-0.185 -0.416,-0.416 0,-0.228 0.187,-0.415 0.416,-0.415 2.034,0 3.686,-1.652 3.686,-3.684 0,-0.229 0.185,-0.416 0.413,-0.416 0.231,0 0.416,0.187 0.416,0.416 0,2.032 1.655,3.684 3.687,3.684 0.229,0 0.413,0.187 0.413,0.415 C 0.413,-0.185 0.229,0 0,0" />
                  </g>
                </g>
              </g>
            </g>
          </g>
        </g>
        <g
           id="g168"
           transform="translate(337.13,352.53)">
          <path
             style="fill:#e67000"
             inkscape:connector-curvature="0"
             id="path170"
             d="m 0,0 c 4.222,9.415 17.499,22.846 18.062,23.413 0.489,0.495 1.206,0.677 1.874,0.492 0.666,-0.189 1.177,-0.725 1.334,-1.402 l 17.657,-76.414 c 0.14,-0.604 -0.023,-1.237 -0.436,-1.695 -0.412,-0.467 -1.023,-0.707 -1.638,-0.625 -0.007,0 -0.903,0.1 -2.363,0.1 -6.41,0 -21.854,-1.854 -26.794,-19.029 -0.22,-0.762 -0.885,-1.31 -1.675,-1.374 -0.052,-0.002 -0.105,-0.002 -0.157,-0.002 -0.727,0 -1.4,0.415 -1.718,1.083 C -11.901,-41.758 -4.287,-9.562 0,0" />
        </g>
        <g
           id="g172">
          <g
             id="g242">
            <g
               style="opacity:0.3"
               id="g244"
               clip-path="url(#clipPath176)">
              <g
                 id="g246">
                <g
                   id="g248"
                   clip-path="url(#clipPath180)">
                  <g
                     id="g250">
                    <g
                       id="g254"
                       mask="url(#mask202)">
                      <g
                         id="g258">
                        <g
                           id="g260"
                           clip-path="url(#clipPath228)">
                          <g
                             id="g262">
                            <g
                               id="g264">
                              <g
                                 id="g266">
                                <g
                                   id="g268">
                                <path
                                   style="fill:url(#linearGradient236)"
                                   inkscape:connector-curvature="0"
                                   id="path270"
                                   d="m 380.46,290.36 h 42.021 V 203.817 H 380.46 v 86.543 z" />
                                </g>
                              </g>
                            </g>
                          </g>
                        </g>
                      </g>
                    </g>
                  </g>
                </g>
              </g>
            </g>
          </g>
        </g>
        <g
           id="g272"
           transform="translate(425.29,296.55)">
          <path
             style="fill:#bf5d00"
             inkscape:connector-curvature="0"
             id="path274"
             d="m 0,0 c -0.439,0.361 -1.014,0.51 -1.575,0.399 -4.53,-0.891 -12.063,-1.95 -22.251,-1.95 -10.189,0 -17.724,1.059 -22.25,1.95 -0.559,0.111 -1.136,-0.034 -1.577,-0.399 -0.441,-0.364 -0.696,-0.902 -0.696,-1.469 v -10.318 c 0,-0.938 0.68,-1.734 1.604,-1.881 0.513,-0.082 12.685,-2.011 22.919,-2.011 10.232,0 22.404,1.929 22.919,2.011 0.922,0.147 1.604,0.943 1.604,1.881 V -1.469 C 0.697,-0.902 0.442,-0.364 0,0" />
        </g>
        <g
           id="g276">
          <g
             id="g288">
            <g
               style="opacity:0.2"
               id="g290"
               clip-path="url(#clipPath280)">
              <g
                 id="g292">
                <g
                   id="g294"
                   clip-path="url(#clipPath284)">
                  <g
                     id="g296"
                     transform="translate(425.29,297.12)">
                    <path
                       style="fill:#231f20"
                       inkscape:connector-curvature="0"
                       id="path298"
                       d="m 0,0 c -0.439,0.36 -1.014,0.51 -1.575,0.397 -4.53,-0.891 -12.063,-1.952 -22.251,-1.952 -10.189,0 -17.724,1.061 -22.25,1.952 -0.559,0.115 -1.136,-0.037 -1.577,-0.397 -0.441,-0.363 -0.696,-0.903 -0.696,-1.47 v -5.717 c 0,0.572 0.255,1.111 0.696,1.47 0.441,0.364 1.018,0.515 1.577,0.402 4.526,-0.892 12.061,-1.953 22.25,-1.953 10.188,0 17.721,1.061 22.251,1.953 0.561,0.11 1.136,-0.039 1.575,-0.402 0.442,-0.359 0.697,-0.898 0.697,-1.47 V -1.47 C 0.697,-0.903 0.442,-0.363 0,0" />
                  </g>
                </g>
              </g>
            </g>
          </g>
        </g>
        <g
           id="g300"
           transform="translate(401.46,496.26)">
          <path
             style="fill:#ff7c00"
             inkscape:connector-curvature="0"
             id="path302"
             d="m 0,0 c -9.34,0 -47.653,-48.961 -47.653,-106.66 0,-55.951 16.9,-91.826 17.071,-92.204 0.214,-0.468 0.61,-0.835 1.099,-1.004 0.419,-0.15 10.525,-3.651 29.483,-3.651 18.955,0 29.062,3.501 29.485,3.651 0.486,0.169 0.884,0.536 1.095,1.004 0.173,0.378 17.072,36.253 17.072,92.204 C 47.652,-48.961 9.339,0 0,0" />
        </g>
        <g
           id="g304"
           transform="translate(429.37,463.52)">
          <path
             style="fill:#bf5d00"
             inkscape:connector-curvature="0"
             id="path306"
             d="M 0,0 C -11.005,20.058 -23.084,32.742 -27.902,32.742 -32.723,32.742 -44.8,20.058 -55.805,0 -52.679,-0.92 -43.538,-3.163 -27.902,-3.163 -12.267,-3.163 -3.125,-0.92 0,0" />
        </g>
        <g
           id="g308"
           transform="translate(401.46,390.86)">
          <path
             style="fill:#ffffff"
             inkscape:connector-curvature="0"
             id="path310"
             d="m 0,0 c -8.13,0 -14.745,6.614 -14.745,14.744 0,8.131 6.615,14.745 14.745,14.745 8.13,0 14.743,-6.614 14.743,-14.745 C 14.743,6.614 8.13,0 0,0" />
        </g>
        <g
           id="g312"
           transform="translate(401.46,421.35)">
          <path
             style="fill:#e66e00"
             inkscape:connector-curvature="0"
             id="path314"
             d="m 0,0 c -8.682,0 -15.745,-7.063 -15.745,-15.746 0,-8.681 7.063,-15.743 15.745,-15.743 8.681,0 15.743,7.062 15.743,15.743 C 15.743,-7.063 8.681,0 0,0 m 0,-2 c 7.59,0 13.743,-6.153 13.743,-13.746 0,-7.589 -6.153,-13.743 -13.743,-13.743 -7.592,0 -13.745,6.154 -13.745,13.743 C -13.745,-8.153 -7.592,-2 0,-2" />
        </g>
        <g
           id="g316"
           transform="translate(401.46,347.28)">
          <path
             style="fill:#ffffff"
             inkscape:connector-curvature="0"
             id="path318"
             d="m 0,0 c -5.506,0 -9.985,4.479 -9.985,9.983 0,5.506 4.479,9.985 9.985,9.985 5.505,0 9.983,-4.479 9.983,-9.985 C 9.983,4.479 5.505,0 0,0" />
        </g>
        <g
           id="g320"
           transform="translate(401.46,368.25)">
          <path
             style="fill:#e66e00"
             inkscape:connector-curvature="0"
             id="path322"
             d="m 0,0 c -6.057,0 -10.985,-4.928 -10.985,-10.985 0,-6.057 4.928,-10.983 10.985,-10.983 6.057,0 10.983,4.926 10.983,10.983 C 10.983,-4.928 6.057,0 0,0 m 0,-2 c 4.963,0 8.983,-4.023 8.983,-8.985 0,-4.962 -4.02,-8.983 -8.983,-8.983 -4.962,0 -8.985,4.021 -8.985,8.983 C -8.985,-6.023 -4.962,-2 0,-2" />
        </g>
        <g
           id="g324"
           transform="translate(390.39,402.94)">
          <path
             style="fill:#e6e7e8"
             inkscape:connector-curvature="0"
             id="path326"
             d="m 0,0 c 0,7.592 6.153,13.746 13.744,13.746 3.115,0 5.976,-1.048 8.282,-2.794 -2.51,3.312 -6.473,5.46 -10.948,5.46 -7.592,0 -13.745,-6.154 -13.745,-13.746 0,-4.475 2.149,-8.44 5.463,-10.95 C 1.048,-5.979 0,-3.115 0,0" />
        </g>
        <g
           id="g328"
           transform="translate(395.15,354.6)">
          <path
             style="fill:#e6e7e8"
             inkscape:connector-curvature="0"
             id="path330"
             d="m 0,0 c 0,4.962 4.023,8.985 8.984,8.985 1.797,0 3.464,-0.54 4.866,-1.448 -1.6,2.471 -4.369,4.114 -7.532,4.114 -4.962,0 -8.985,-4.023 -8.985,-8.985 0,-3.163 1.645,-5.935 4.118,-7.535 C 0.541,-3.463 0,-1.799 0,0" />
        </g>
        <g
           id="g332"
           transform="translate(465.44,352.53)">
          <path
             style="fill:#ff7c00"
             inkscape:connector-curvature="0"
             id="path334"
             d="m 0,0 c -4.22,9.415 -17.497,22.846 -18.062,23.413 -0.487,0.495 -1.206,0.677 -1.873,0.492 -0.666,-0.189 -1.176,-0.725 -1.333,-1.402 l -17.658,-76.414 c -0.139,-0.604 0.024,-1.237 0.437,-1.695 0.411,-0.467 1.023,-0.707 1.638,-0.625 0.009,0 0.903,0.1 2.364,0.1 6.408,0 21.851,-1.854 26.795,-19.029 0.215,-0.762 0.883,-1.31 1.671,-1.374 0.052,-0.002 0.106,-0.002 0.159,-0.002 0.729,0 1.397,0.415 1.719,1.083 C 11.901,-41.758 4.287,-9.562 0,0" />
        </g>
        <g
           id="g336"
           transform="translate(435.45,451.2)">
          <path
             style="fill:#ff9633"
             inkscape:connector-curvature="0"
             id="path338"
             d="m 0,0 c 6.474,-16.294 9.882,-50.928 6.101,-74.519 3.557,-3.721 13.237,-14.248 16.731,-22.039 4.141,-9.24 11.382,-39.592 -2.592,-72.017 0.815,-1.587 1.531,-3.333 2.102,-5.303 0.219,-0.762 0.884,-1.309 1.675,-1.374 0.052,-0.005 0.102,-0.005 0.155,-0.005 0.728,0 1.4,0.418 1.718,1.086 16.048,33.695 8.435,65.892 4.145,75.456 -3.492,7.791 -13.177,18.316 -16.731,22.039 0.264,4.832 0.413,9.847 0.413,15.035 0,22.718 -5.942,44.085 -13.717,61.64" />
        </g>
        <g
           id="g340">
          <g
             id="g352">
            <g
               style="opacity:0.2"
               id="g354"
               clip-path="url(#clipPath344)">
              <g
                 id="g356">
                <g
                   id="g358"
                   clip-path="url(#clipPath348)">
                  <g
                     id="g360"
                     transform="translate(365.62,377.8)">
                    <path
                       style="fill:#231f20"
                       inkscape:connector-curvature="0"
                       id="path362"
                       d="m 0,0 c 0,57.692 38.313,106.66 47.654,106.66 0.876,0 2.014,-0.438 3.349,-1.269 -6.51,8.311 -12.246,13.078 -15.16,13.078 -9.34,0 -47.653,-48.961 -47.653,-106.66 0,-55.951 16.9,-91.826 17.071,-92.204 0.214,-0.468 0.61,-0.835 1.099,-1.004 0.201,-0.071 2.617,-0.9 7.112,-1.751 C 8.464,-69.135 0,-39.607 0,-0.001" />
                  </g>
                </g>
              </g>
            </g>
          </g>
        </g>
      </g>
    </g>
  </g>
</svg>
